<?xml version="1.0" encoding="utf-8" standalone="no"?>
<!DOCTYPE svg PUBLIC "-//W3C//DTD SVG 1.1//EN"
  "http://www.w3.org/Graphics/SVG/1.1/DTD/svg11.dtd">
<svg xmlns:xlink="http://www.w3.org/1999/xlink" width="864pt" height="576pt" viewBox="0 0 864 576" xmlns="http://www.w3.org/2000/svg" version="1.1">
 <metadata>
  <rdf:RDF xmlns:dc="http://purl.org/dc/elements/1.1/" xmlns:cc="http://creativecommons.org/ns#" xmlns:rdf="http://www.w3.org/1999/02/22-rdf-syntax-ns#">
   <cc:Work>
    <dc:type rdf:resource="http://purl.org/dc/dcmitype/StillImage"/>
    <dc:date>2025-04-07T17:41:09.458303</dc:date>
    <dc:format>image/svg+xml</dc:format>
    <dc:creator>
     <cc:Agent>
      <dc:title>Matplotlib v3.10.1, https://matplotlib.org/</dc:title>
     </cc:Agent>
    </dc:creator>
   </cc:Work>
  </rdf:RDF>
 </metadata>
 <defs>
  <style type="text/css">*{stroke-linejoin: round; stroke-linecap: butt}</style>
 </defs>
 <g id="figure_1">
  <g id="patch_1">
   <path d="M 0 576 
L 864 576 
L 864 0 
L 0 0 
z
" style="fill: #ffffff"/>
  </g>
  <g id="axes_1">
   <g id="patch_2">
    <path d="M 44.66 534.04 
L 812.480535 534.04 
L 812.480535 26.88 
L 44.66 26.88 
z
" style="fill: #ffffff"/>
   </g>
   <g id="PathCollection_1">
    <path d="M 106.934214 269.999314 
C 108.862819 269.999314 110.712693 269.233071 112.076423 267.869341 
C 113.440153 266.505612 114.206395 264.655738 114.206395 262.727133 
C 114.206395 260.798528 113.440153 258.948654 112.076423 257.584924 
C 110.712693 256.221195 108.862819 255.454952 106.934214 255.454952 
C 105.00561 255.454952 103.155736 256.221195 101.792006 257.584924 
C 100.428276 258.948654 99.662034 260.798528 99.662034 262.727133 
C 99.662034 264.655738 100.428276 266.505612 101.792006 267.869341 
C 103.155736 269.233071 105.00561 269.999314 106.934214 269.999314 
z
" clip-path="url(#p1a88acda46)" style="fill: #173f35; fill-opacity: 0.7; stroke: #173f35; stroke-opacity: 0.7"/>
    <path d="M 544.906712 57.04576 
C 546.79311 57.04576 548.602501 56.296286 549.936386 54.962401 
C 551.270271 53.628516 552.019745 51.819126 552.019745 49.932727 
C 552.019745 48.046329 551.270271 46.236939 549.936386 44.903053 
C 548.602501 43.569168 546.79311 42.819694 544.906712 42.819694 
C 543.020314 42.819694 541.210923 43.569168 539.877038 44.903053 
C 538.543153 46.236939 537.793679 48.046329 537.793679 49.932727 
C 537.793679 51.819126 538.543153 53.628516 539.877038 54.962401 
C 541.210923 56.296286 543.020314 57.04576 544.906712 57.04576 
z
" clip-path="url(#p1a88acda46)" style="fill: #862633; fill-opacity: 0.7; stroke: #862633; stroke-opacity: 0.7"/>
    <path d="M 93.247574 305.194268 
C 95.104367 305.194268 96.885361 304.456556 98.198312 303.143605 
C 99.511263 301.830654 100.248974 300.04966 100.248974 298.192867 
C 100.248974 296.336074 99.511263 294.55508 98.198312 293.242129 
C 96.885361 291.929178 95.104367 291.191467 93.247574 291.191467 
C 91.390781 291.191467 89.609787 291.929178 88.296836 293.242129 
C 86.983885 294.55508 86.246174 296.336074 86.246174 298.192867 
C 86.246174 300.04966 86.983885 301.830654 88.296836 303.143605 
C 89.609787 304.456556 91.390781 305.194268 93.247574 305.194268 
z
" clip-path="url(#p1a88acda46)" style="fill: #00bfb3; fill-opacity: 0.7; stroke: #00bfb3; stroke-opacity: 0.7"/>
    <path d="M 517.533431 127.626718 
C 519.326873 127.626718 521.047101 126.914176 522.315256 125.646021 
C 523.583411 124.377866 524.295953 122.657638 524.295953 120.864196 
C 524.295953 119.070754 523.583411 117.350525 522.315256 116.08237 
C 521.047101 114.814216 519.326873 114.101674 517.533431 114.101674 
C 515.739989 114.101674 514.019761 114.814216 512.751606 116.08237 
C 511.483451 117.350525 510.770909 119.070754 510.770909 120.864196 
C 510.770909 122.657638 511.483451 124.377866 512.751606 125.646021 
C 514.019761 126.914176 515.739989 127.626718 517.533431 127.626718 
z
" clip-path="url(#p1a88acda46)" style="fill: #ffb81c; fill-opacity: 0.7; stroke: #ffb81c; stroke-opacity: 0.7"/>
    <path d="M 147.994136 304.934866 
C 149.782135 304.934866 151.497143 304.224486 152.761449 302.96018 
C 154.025755 301.695874 154.736135 299.980866 154.736135 298.192867 
C 154.736135 296.404868 154.025755 294.68986 152.761449 293.425554 
C 151.497143 292.161248 149.782135 291.450869 147.994136 291.450869 
C 146.206137 291.450869 144.491129 292.161248 143.226823 293.425554 
C 141.962517 294.68986 141.252138 296.404868 141.252138 298.192867 
C 141.252138 299.980866 141.962517 301.695874 143.226823 302.96018 
C 144.491129 304.224486 146.206137 304.934866 147.994136 304.934866 
z
" clip-path="url(#p1a88acda46)" style="fill: #0067b9; fill-opacity: 0.7; stroke: #0067b9; stroke-opacity: 0.7"/>
    <path d="M 736.51968 127.050092 
C 738.160198 127.050092 739.733747 126.398307 740.893769 125.238285 
C 742.05379 124.078263 742.705575 122.504715 742.705575 120.864196 
C 742.705575 119.223677 742.05379 117.650129 740.893769 116.490107 
C 739.733747 115.330085 738.160198 114.6783 736.51968 114.6783 
C 734.879161 114.6783 733.305613 115.330085 732.145591 116.490107 
C 730.985569 117.650129 730.333784 119.223677 730.333784 120.864196 
C 730.333784 122.504715 730.985569 124.078263 732.145591 125.238285 
C 733.305613 126.398307 734.879161 127.050092 736.51968 127.050092 
z
" clip-path="url(#p1a88acda46)" style="fill: #173f35; fill-opacity: 0.7; stroke: #173f35; stroke-opacity: 0.7"/>
    <path d="M 93.247574 410.447862 
C 94.801079 410.447862 96.291165 409.830648 97.389658 408.732154 
C 98.488152 407.633661 99.105366 406.143574 99.105366 404.59007 
C 99.105366 403.036565 98.488152 401.546479 97.389658 400.447986 
C 96.291165 399.349492 94.801079 398.732278 93.247574 398.732278 
C 91.694069 398.732278 90.203983 399.349492 89.10549 400.447986 
C 88.006996 401.546479 87.389782 403.036565 87.389782 404.59007 
C 87.389782 406.143574 88.006996 407.633661 89.10549 408.732154 
C 90.203983 409.830648 91.694069 410.447862 93.247574 410.447862 
z
" clip-path="url(#p1a88acda46)" style="fill: #173f35; fill-opacity: 0.7; stroke: #173f35; stroke-opacity: 0.7"/>
    <path d="M 298.547182 339.497343 
C 300.095635 339.497343 301.580875 338.882137 302.675796 337.787216 
C 303.770718 336.692294 304.385924 335.207054 304.385924 333.658601 
C 304.385924 332.110149 303.770718 330.624909 302.675796 329.529987 
C 301.580875 328.435066 300.095635 327.819859 298.547182 327.819859 
C 296.99873 327.819859 295.513489 328.435066 294.418568 329.529987 
C 293.323647 330.624909 292.70844 332.110149 292.70844 333.658601 
C 292.70844 335.207054 293.323647 336.692294 294.418568 337.787216 
C 295.513489 338.882137 296.99873 339.497343 298.547182 339.497343 
z
" clip-path="url(#p1a88acda46)" style="fill: #0067b9; fill-opacity: 0.7; stroke: #0067b9; stroke-opacity: 0.7"/>
    <path d="M 421.726947 303.96637 
C 423.258098 303.96637 424.726743 303.358037 425.80943 302.27535 
C 426.892117 301.192663 427.50045 299.724018 427.50045 298.192867 
C 427.50045 296.661716 426.892117 295.193071 425.80943 294.110384 
C 424.726743 293.027697 423.258098 292.419364 421.726947 292.419364 
C 420.195796 292.419364 418.727151 293.027697 417.644464 294.110384 
C 416.561777 295.193071 415.953444 296.661716 415.953444 298.192867 
C 415.953444 299.724018 416.561777 301.192663 417.644464 302.27535 
C 418.727151 303.358037 420.195796 303.96637 421.726947 303.96637 
z
" clip-path="url(#p1a88acda46)" style="fill: #a77bca; fill-opacity: 0.7; stroke: #a77bca; stroke-opacity: 0.7"/>
    <path d="M 695.459758 232.880913 
C 696.950071 232.880913 698.379545 232.288806 699.433355 231.234996 
C 700.487165 230.181185 701.079273 228.751711 701.079273 227.261399 
C 701.079273 225.771086 700.487165 224.341612 699.433355 223.287802 
C 698.379545 222.233991 696.950071 221.641884 695.459758 221.641884 
C 693.969445 221.641884 692.539971 222.233991 691.486161 223.287802 
C 690.432351 224.341612 689.840243 225.771086 689.840243 227.261399 
C 689.840243 228.751711 690.432351 230.181185 691.486161 231.234996 
C 692.539971 232.288806 693.969445 232.880913 695.459758 232.880913 
z
" clip-path="url(#p1a88acda46)" style="fill: #00bfb3; fill-opacity: 0.7; stroke: #00bfb3; stroke-opacity: 0.7"/>
    <path d="M 380.667025 339.248771 
C 382.149556 339.248771 383.571565 338.659756 384.619873 337.611448 
C 385.66818 336.563141 386.257195 335.141132 386.257195 333.658601 
C 386.257195 332.176071 385.66818 330.754062 384.619873 329.705754 
C 383.571565 328.657447 382.149556 328.068431 380.667025 328.068431 
C 379.184495 328.068431 377.762486 328.657447 376.714178 329.705754 
C 375.665871 330.754062 375.076856 332.176071 375.076856 333.658601 
C 375.076856 335.141132 375.665871 336.563141 376.714178 337.611448 
C 377.762486 338.659756 379.184495 339.248771 380.667025 339.248771 
z
" clip-path="url(#p1a88acda46)" style="fill: #00bfb3; fill-opacity: 0.7; stroke: #00bfb3; stroke-opacity: 0.7"/>
    <path d="M 284.860542 374.671338 
C 286.331624 374.671338 287.742652 374.086871 288.782864 373.046658 
C 289.823076 372.006446 290.407544 370.595418 290.407544 369.124336 
C 290.407544 367.653254 289.823076 366.242225 288.782864 365.202013 
C 287.742652 364.161801 286.331624 363.577334 284.860542 363.577334 
C 283.38946 363.577334 281.978431 364.161801 280.938219 365.202013 
C 279.898007 366.242225 279.31354 367.653254 279.31354 369.124336 
C 279.31354 370.595418 279.898007 372.006446 280.938219 373.046658 
C 281.978431 374.086871 283.38946 374.671338 284.860542 374.671338 
z
" clip-path="url(#p1a88acda46)" style="fill: #a77bca; fill-opacity: 0.7; stroke: #a77bca; stroke-opacity: 0.7"/>
    <path d="M 202.740698 410.036263 
C 204.185046 410.036263 205.570431 409.462418 206.591738 408.44111 
C 207.613046 407.419802 208.186891 406.034417 208.186891 404.59007 
C 208.186891 403.145723 207.613046 401.760338 206.591738 400.73903 
C 205.570431 399.717722 204.185046 399.143877 202.740698 399.143877 
C 201.296351 399.143877 199.910966 399.717722 198.889658 400.73903 
C 197.868351 401.760338 197.294505 403.145723 197.294505 404.59007 
C 197.294505 406.034417 197.868351 407.419802 198.889658 408.44111 
C 199.910966 409.462418 201.296351 410.036263 202.740698 410.036263 
z
" clip-path="url(#p1a88acda46)" style="fill: #a77bca; fill-opacity: 0.7; stroke: #a77bca; stroke-opacity: 0.7"/>
    <path d="M 668.086477 268.164953 
C 669.528604 268.164953 670.911859 267.59199 671.931597 266.572253 
C 672.951334 265.552515 673.524298 264.16926 673.524298 262.727133 
C 673.524298 261.285006 672.951334 259.901751 671.931597 258.882013 
C 670.911859 257.862275 669.528604 257.289312 668.086477 257.289312 
C 666.64435 257.289312 665.261095 257.862275 664.241357 258.882013 
C 663.221619 259.901751 662.648656 261.285006 662.648656 262.727133 
C 662.648656 264.16926 663.221619 265.552515 664.241357 266.572253 
C 665.261095 267.59199 666.64435 268.164953 668.086477 268.164953 
z
" clip-path="url(#p1a88acda46)" style="fill: #0067b9; fill-opacity: 0.7; stroke: #0067b9; stroke-opacity: 0.7"/>
    <path d="M 490.16015 338.961902 
C 491.566602 338.961902 492.915638 338.403113 493.91015 337.408601 
C 494.904661 336.41409 495.463451 335.065053 495.463451 333.658601 
C 495.463451 332.25215 494.904661 330.903113 493.91015 329.908601 
C 492.915638 328.91409 491.566602 328.355301 490.16015 328.355301 
C 488.753698 328.355301 487.404661 328.91409 486.41015 329.908601 
C 485.415638 330.903113 484.856849 332.25215 484.856849 333.658601 
C 484.856849 335.065053 485.415638 336.41409 486.41015 337.408601 
C 487.404661 338.403113 488.753698 338.961902 490.16015 338.961902 
z
" clip-path="url(#p1a88acda46)" style="fill: #ffb81c; fill-opacity: 0.7; stroke: #ffb81c; stroke-opacity: 0.7"/>
    <path d="M 134.307496 445.326267 
C 135.705239 445.326267 137.045922 444.770938 138.034276 443.782584 
C 139.022629 442.794231 139.577958 441.453547 139.577958 440.055804 
C 139.577958 438.658061 139.022629 437.317378 138.034276 436.329024 
C 137.045922 435.340671 135.705239 434.785341 134.307496 434.785341 
C 132.909753 434.785341 131.569069 435.340671 130.580716 436.329024 
C 129.592362 437.317378 129.037033 438.658061 129.037033 440.055804 
C 129.037033 441.453547 129.592362 442.794231 130.580716 443.782584 
C 131.569069 444.770938 132.909753 445.326267 134.307496 445.326267 
z
" clip-path="url(#p1a88acda46)" style="fill: #0067b9; fill-opacity: 0.7; stroke: #0067b9; stroke-opacity: 0.7"/>
    <path d="M 777.579601 303.168053 
C 778.899036 303.168053 780.164608 302.643836 781.097589 301.710855 
C 782.03057 300.777874 782.554787 299.512302 782.554787 298.192867 
C 782.554787 296.873432 782.03057 295.607861 781.097589 294.674879 
C 780.164608 293.741898 778.899036 293.217681 777.579601 293.217681 
C 776.260167 293.217681 774.994595 293.741898 774.061614 294.674879 
C 773.128632 295.607861 772.604415 296.873432 772.604415 298.192867 
C 772.604415 299.512302 773.128632 300.777874 774.061614 301.710855 
C 774.994595 302.643836 776.260167 303.168053 777.579601 303.168053 
z
" clip-path="url(#p1a88acda46)" style="fill: #862633; fill-opacity: 0.7; stroke: #862633; stroke-opacity: 0.7"/>
    <path d="M 161.680777 480.246094 
C 162.933744 480.246094 164.135561 479.748285 165.021542 478.862304 
C 165.907524 477.976323 166.405333 476.774505 166.405333 475.521538 
C 166.405333 474.268572 165.907524 473.066754 165.021542 472.180773 
C 164.135561 471.294792 162.933744 470.796983 161.680777 470.796983 
C 160.42781 470.796983 159.225993 471.294792 158.340011 472.180773 
C 157.45403 473.066754 156.956221 474.268572 156.956221 475.521538 
C 156.956221 476.774505 157.45403 477.976323 158.340011 478.862304 
C 159.225993 479.748285 160.42781 480.246094 161.680777 480.246094 
z
" clip-path="url(#p1a88acda46)" style="fill: #0067b9; fill-opacity: 0.7; stroke: #0067b9; stroke-opacity: 0.7"/>
    <path d="M 380.667025 444.620159 
C 381.877506 444.620159 383.038572 444.13923 383.894512 443.28329 
C 384.750451 442.427351 385.23138 441.266285 385.23138 440.055804 
C 385.23138 438.845323 384.750451 437.684257 383.894512 436.828318 
C 383.038572 435.972379 381.877506 435.49145 380.667025 435.49145 
C 379.456544 435.49145 378.295479 435.972379 377.439539 436.828318 
C 376.5836 437.684257 376.102671 438.845323 376.102671 440.055804 
C 376.102671 441.266285 376.5836 442.427351 377.439539 443.28329 
C 378.295479 444.13923 379.456544 444.620159 380.667025 444.620159 
z
" clip-path="url(#p1a88acda46)" style="fill: #00bfb3; fill-opacity: 0.7; stroke: #00bfb3; stroke-opacity: 0.7"/>
    <path d="M 79.560933 515.459409 
C 80.746958 515.459409 81.884565 514.988196 82.723211 514.14955 
C 83.561857 513.310905 84.033069 512.173297 84.033069 510.987273 
C 84.033069 509.801248 83.561857 508.663641 82.723211 507.824995 
C 81.884565 506.986349 80.746958 506.515137 79.560933 506.515137 
C 78.374909 506.515137 77.237302 506.986349 76.398656 507.824995 
C 75.56001 508.663641 75.088797 509.801248 75.088797 510.987273 
C 75.088797 512.173297 75.56001 513.310905 76.398656 514.14955 
C 77.237302 514.988196 78.374909 515.459409 79.560933 515.459409 
z
" clip-path="url(#p1a88acda46)" style="fill: #862633; fill-opacity: 0.7; stroke: #862633; stroke-opacity: 0.7"/>
   </g>
   <g id="matplotlib.axis_1">
    <g id="xtick_1">
     <g id="line2d_1">
      <path d="M 79.560933 534.04 
L 79.560933 26.88 
" clip-path="url(#p1a88acda46)" style="fill: none; stroke: #b0b0b0; stroke-opacity: 0.3; stroke-width: 0.8; stroke-linecap: square"/>
     </g>
     <g id="line2d_2">
      <defs>
       <path id="mece35c4626" d="M 0 0 
L 0 3.5 
" style="stroke: #000000; stroke-width: 0.8"/>
      </defs>
      <g>
       <use xlink:href="#mece35c4626" x="79.560933" y="534.04" style="stroke: #000000; stroke-width: 0.8"/>
      </g>
     </g>
     <g id="text_1">
      <!-- 50 -->
      <g transform="translate(73.198433 548.638438) scale(0.1 -0.1)">
       <defs>
        <path id="DejaVuSans-35" d="M 691 4666 
L 3169 4666 
L 3169 4134 
L 1269 4134 
L 1269 2991 
Q 1406 3038 1543 3061 
Q 1681 3084 1819 3084 
Q 2600 3084 3056 2656 
Q 3513 2228 3513 1497 
Q 3513 744 3044 326 
Q 2575 -91 1722 -91 
Q 1428 -91 1123 -41 
Q 819 9 494 109 
L 494 744 
Q 775 591 1075 516 
Q 1375 441 1709 441 
Q 2250 441 2565 725 
Q 2881 1009 2881 1497 
Q 2881 1984 2565 2268 
Q 2250 2553 1709 2553 
Q 1456 2553 1204 2497 
Q 953 2441 691 2322 
L 691 4666 
z
" transform="scale(0.015625)"/>
        <path id="DejaVuSans-30" d="M 2034 4250 
Q 1547 4250 1301 3770 
Q 1056 3291 1056 2328 
Q 1056 1369 1301 889 
Q 1547 409 2034 409 
Q 2525 409 2770 889 
Q 3016 1369 3016 2328 
Q 3016 3291 2770 3770 
Q 2525 4250 2034 4250 
z
M 2034 4750 
Q 2819 4750 3233 4129 
Q 3647 3509 3647 2328 
Q 3647 1150 3233 529 
Q 2819 -91 2034 -91 
Q 1250 -91 836 529 
Q 422 1150 422 2328 
Q 422 3509 836 4129 
Q 1250 4750 2034 4750 
z
" transform="scale(0.015625)"/>
       </defs>
       <use xlink:href="#DejaVuSans-35"/>
       <use xlink:href="#DejaVuSans-30" transform="translate(63.623047 0)"/>
      </g>
     </g>
    </g>
    <g id="xtick_2">
     <g id="line2d_3">
      <path d="M 216.427339 534.04 
L 216.427339 26.88 
" clip-path="url(#p1a88acda46)" style="fill: none; stroke: #b0b0b0; stroke-opacity: 0.3; stroke-width: 0.8; stroke-linecap: square"/>
     </g>
     <g id="line2d_4">
      <g>
       <use xlink:href="#mece35c4626" x="216.427339" y="534.04" style="stroke: #000000; stroke-width: 0.8"/>
      </g>
     </g>
     <g id="text_2">
      <!-- 60 -->
      <g transform="translate(210.064839 548.638438) scale(0.1 -0.1)">
       <defs>
        <path id="DejaVuSans-36" d="M 2113 2584 
Q 1688 2584 1439 2293 
Q 1191 2003 1191 1497 
Q 1191 994 1439 701 
Q 1688 409 2113 409 
Q 2538 409 2786 701 
Q 3034 994 3034 1497 
Q 3034 2003 2786 2293 
Q 2538 2584 2113 2584 
z
M 3366 4563 
L 3366 3988 
Q 3128 4100 2886 4159 
Q 2644 4219 2406 4219 
Q 1781 4219 1451 3797 
Q 1122 3375 1075 2522 
Q 1259 2794 1537 2939 
Q 1816 3084 2150 3084 
Q 2853 3084 3261 2657 
Q 3669 2231 3669 1497 
Q 3669 778 3244 343 
Q 2819 -91 2113 -91 
Q 1303 -91 875 529 
Q 447 1150 447 2328 
Q 447 3434 972 4092 
Q 1497 4750 2381 4750 
Q 2619 4750 2861 4703 
Q 3103 4656 3366 4563 
z
" transform="scale(0.015625)"/>
       </defs>
       <use xlink:href="#DejaVuSans-36"/>
       <use xlink:href="#DejaVuSans-30" transform="translate(63.623047 0)"/>
      </g>
     </g>
    </g>
    <g id="xtick_3">
     <g id="line2d_5">
      <path d="M 353.293744 534.04 
L 353.293744 26.88 
" clip-path="url(#p1a88acda46)" style="fill: none; stroke: #b0b0b0; stroke-opacity: 0.3; stroke-width: 0.8; stroke-linecap: square"/>
     </g>
     <g id="line2d_6">
      <g>
       <use xlink:href="#mece35c4626" x="353.293744" y="534.04" style="stroke: #000000; stroke-width: 0.8"/>
      </g>
     </g>
     <g id="text_3">
      <!-- 70 -->
      <g transform="translate(346.931244 548.638438) scale(0.1 -0.1)">
       <defs>
        <path id="DejaVuSans-37" d="M 525 4666 
L 3525 4666 
L 3525 4397 
L 1831 0 
L 1172 0 
L 2766 4134 
L 525 4134 
L 525 4666 
z
" transform="scale(0.015625)"/>
       </defs>
       <use xlink:href="#DejaVuSans-37"/>
       <use xlink:href="#DejaVuSans-30" transform="translate(63.623047 0)"/>
      </g>
     </g>
    </g>
    <g id="xtick_4">
     <g id="line2d_7">
      <path d="M 490.16015 534.04 
L 490.16015 26.88 
" clip-path="url(#p1a88acda46)" style="fill: none; stroke: #b0b0b0; stroke-opacity: 0.3; stroke-width: 0.8; stroke-linecap: square"/>
     </g>
     <g id="line2d_8">
      <g>
       <use xlink:href="#mece35c4626" x="490.16015" y="534.04" style="stroke: #000000; stroke-width: 0.8"/>
      </g>
     </g>
     <g id="text_4">
      <!-- 80 -->
      <g transform="translate(483.79765 548.638438) scale(0.1 -0.1)">
       <defs>
        <path id="DejaVuSans-38" d="M 2034 2216 
Q 1584 2216 1326 1975 
Q 1069 1734 1069 1313 
Q 1069 891 1326 650 
Q 1584 409 2034 409 
Q 2484 409 2743 651 
Q 3003 894 3003 1313 
Q 3003 1734 2745 1975 
Q 2488 2216 2034 2216 
z
M 1403 2484 
Q 997 2584 770 2862 
Q 544 3141 544 3541 
Q 544 4100 942 4425 
Q 1341 4750 2034 4750 
Q 2731 4750 3128 4425 
Q 3525 4100 3525 3541 
Q 3525 3141 3298 2862 
Q 3072 2584 2669 2484 
Q 3125 2378 3379 2068 
Q 3634 1759 3634 1313 
Q 3634 634 3220 271 
Q 2806 -91 2034 -91 
Q 1263 -91 848 271 
Q 434 634 434 1313 
Q 434 1759 690 2068 
Q 947 2378 1403 2484 
z
M 1172 3481 
Q 1172 3119 1398 2916 
Q 1625 2713 2034 2713 
Q 2441 2713 2670 2916 
Q 2900 3119 2900 3481 
Q 2900 3844 2670 4047 
Q 2441 4250 2034 4250 
Q 1625 4250 1398 4047 
Q 1172 3844 1172 3481 
z
" transform="scale(0.015625)"/>
       </defs>
       <use xlink:href="#DejaVuSans-38"/>
       <use xlink:href="#DejaVuSans-30" transform="translate(63.623047 0)"/>
      </g>
     </g>
    </g>
    <g id="xtick_5">
     <g id="line2d_9">
      <path d="M 627.026555 534.04 
L 627.026555 26.88 
" clip-path="url(#p1a88acda46)" style="fill: none; stroke: #b0b0b0; stroke-opacity: 0.3; stroke-width: 0.8; stroke-linecap: square"/>
     </g>
     <g id="line2d_10">
      <g>
       <use xlink:href="#mece35c4626" x="627.026555" y="534.04" style="stroke: #000000; stroke-width: 0.8"/>
      </g>
     </g>
     <g id="text_5">
      <!-- 90 -->
      <g transform="translate(620.664055 548.638438) scale(0.1 -0.1)">
       <defs>
        <path id="DejaVuSans-39" d="M 703 97 
L 703 672 
Q 941 559 1184 500 
Q 1428 441 1663 441 
Q 2288 441 2617 861 
Q 2947 1281 2994 2138 
Q 2813 1869 2534 1725 
Q 2256 1581 1919 1581 
Q 1219 1581 811 2004 
Q 403 2428 403 3163 
Q 403 3881 828 4315 
Q 1253 4750 1959 4750 
Q 2769 4750 3195 4129 
Q 3622 3509 3622 2328 
Q 3622 1225 3098 567 
Q 2575 -91 1691 -91 
Q 1453 -91 1209 -44 
Q 966 3 703 97 
z
M 1959 2075 
Q 2384 2075 2632 2365 
Q 2881 2656 2881 3163 
Q 2881 3666 2632 3958 
Q 2384 4250 1959 4250 
Q 1534 4250 1286 3958 
Q 1038 3666 1038 3163 
Q 1038 2656 1286 2365 
Q 1534 2075 1959 2075 
z
" transform="scale(0.015625)"/>
       </defs>
       <use xlink:href="#DejaVuSans-39"/>
       <use xlink:href="#DejaVuSans-30" transform="translate(63.623047 0)"/>
      </g>
     </g>
    </g>
    <g id="xtick_6">
     <g id="line2d_11">
      <path d="M 763.892961 534.04 
L 763.892961 26.88 
" clip-path="url(#p1a88acda46)" style="fill: none; stroke: #b0b0b0; stroke-opacity: 0.3; stroke-width: 0.8; stroke-linecap: square"/>
     </g>
     <g id="line2d_12">
      <g>
       <use xlink:href="#mece35c4626" x="763.892961" y="534.04" style="stroke: #000000; stroke-width: 0.8"/>
      </g>
     </g>
     <g id="text_6">
      <!-- 100 -->
      <g transform="translate(754.349211 548.638438) scale(0.1 -0.1)">
       <defs>
        <path id="DejaVuSans-31" d="M 794 531 
L 1825 531 
L 1825 4091 
L 703 3866 
L 703 4441 
L 1819 4666 
L 2450 4666 
L 2450 531 
L 3481 531 
L 3481 0 
L 794 0 
L 794 531 
z
" transform="scale(0.015625)"/>
       </defs>
       <use xlink:href="#DejaVuSans-31"/>
       <use xlink:href="#DejaVuSans-30" transform="translate(63.623047 0)"/>
       <use xlink:href="#DejaVuSans-30" transform="translate(127.246094 0)"/>
      </g>
     </g>
    </g>
    <g id="text_7">
     <!-- Total Shots -->
     <g transform="translate(401.337455 562.316562) scale(0.1 -0.1)">
      <defs>
       <path id="DejaVuSans-54" d="M -19 4666 
L 3928 4666 
L 3928 4134 
L 2272 4134 
L 2272 0 
L 1638 0 
L 1638 4134 
L -19 4134 
L -19 4666 
z
" transform="scale(0.015625)"/>
       <path id="DejaVuSans-6f" d="M 1959 3097 
Q 1497 3097 1228 2736 
Q 959 2375 959 1747 
Q 959 1119 1226 758 
Q 1494 397 1959 397 
Q 2419 397 2687 759 
Q 2956 1122 2956 1747 
Q 2956 2369 2687 2733 
Q 2419 3097 1959 3097 
z
M 1959 3584 
Q 2709 3584 3137 3096 
Q 3566 2609 3566 1747 
Q 3566 888 3137 398 
Q 2709 -91 1959 -91 
Q 1206 -91 779 398 
Q 353 888 353 1747 
Q 353 2609 779 3096 
Q 1206 3584 1959 3584 
z
" transform="scale(0.015625)"/>
       <path id="DejaVuSans-74" d="M 1172 4494 
L 1172 3500 
L 2356 3500 
L 2356 3053 
L 1172 3053 
L 1172 1153 
Q 1172 725 1289 603 
Q 1406 481 1766 481 
L 2356 481 
L 2356 0 
L 1766 0 
Q 1100 0 847 248 
Q 594 497 594 1153 
L 594 3053 
L 172 3053 
L 172 3500 
L 594 3500 
L 594 4494 
L 1172 4494 
z
" transform="scale(0.015625)"/>
       <path id="DejaVuSans-61" d="M 2194 1759 
Q 1497 1759 1228 1600 
Q 959 1441 959 1056 
Q 959 750 1161 570 
Q 1363 391 1709 391 
Q 2188 391 2477 730 
Q 2766 1069 2766 1631 
L 2766 1759 
L 2194 1759 
z
M 3341 1997 
L 3341 0 
L 2766 0 
L 2766 531 
Q 2569 213 2275 61 
Q 1981 -91 1556 -91 
Q 1019 -91 701 211 
Q 384 513 384 1019 
Q 384 1609 779 1909 
Q 1175 2209 1959 2209 
L 2766 2209 
L 2766 2266 
Q 2766 2663 2505 2880 
Q 2244 3097 1772 3097 
Q 1472 3097 1187 3025 
Q 903 2953 641 2809 
L 641 3341 
Q 956 3463 1253 3523 
Q 1550 3584 1831 3584 
Q 2591 3584 2966 3190 
Q 3341 2797 3341 1997 
z
" transform="scale(0.015625)"/>
       <path id="DejaVuSans-6c" d="M 603 4863 
L 1178 4863 
L 1178 0 
L 603 0 
L 603 4863 
z
" transform="scale(0.015625)"/>
       <path id="DejaVuSans-20" transform="scale(0.015625)"/>
       <path id="DejaVuSans-53" d="M 3425 4513 
L 3425 3897 
Q 3066 4069 2747 4153 
Q 2428 4238 2131 4238 
Q 1616 4238 1336 4038 
Q 1056 3838 1056 3469 
Q 1056 3159 1242 3001 
Q 1428 2844 1947 2747 
L 2328 2669 
Q 3034 2534 3370 2195 
Q 3706 1856 3706 1288 
Q 3706 609 3251 259 
Q 2797 -91 1919 -91 
Q 1588 -91 1214 -16 
Q 841 59 441 206 
L 441 856 
Q 825 641 1194 531 
Q 1563 422 1919 422 
Q 2459 422 2753 634 
Q 3047 847 3047 1241 
Q 3047 1584 2836 1778 
Q 2625 1972 2144 2069 
L 1759 2144 
Q 1053 2284 737 2584 
Q 422 2884 422 3419 
Q 422 4038 858 4394 
Q 1294 4750 2059 4750 
Q 2388 4750 2728 4690 
Q 3069 4631 3425 4513 
z
" transform="scale(0.015625)"/>
       <path id="DejaVuSans-68" d="M 3513 2113 
L 3513 0 
L 2938 0 
L 2938 2094 
Q 2938 2591 2744 2837 
Q 2550 3084 2163 3084 
Q 1697 3084 1428 2787 
Q 1159 2491 1159 1978 
L 1159 0 
L 581 0 
L 581 4863 
L 1159 4863 
L 1159 2956 
Q 1366 3272 1645 3428 
Q 1925 3584 2291 3584 
Q 2894 3584 3203 3211 
Q 3513 2838 3513 2113 
z
" transform="scale(0.015625)"/>
       <path id="DejaVuSans-73" d="M 2834 3397 
L 2834 2853 
Q 2591 2978 2328 3040 
Q 2066 3103 1784 3103 
Q 1356 3103 1142 2972 
Q 928 2841 928 2578 
Q 928 2378 1081 2264 
Q 1234 2150 1697 2047 
L 1894 2003 
Q 2506 1872 2764 1633 
Q 3022 1394 3022 966 
Q 3022 478 2636 193 
Q 2250 -91 1575 -91 
Q 1294 -91 989 -36 
Q 684 19 347 128 
L 347 722 
Q 666 556 975 473 
Q 1284 391 1588 391 
Q 1994 391 2212 530 
Q 2431 669 2431 922 
Q 2431 1156 2273 1281 
Q 2116 1406 1581 1522 
L 1381 1569 
Q 847 1681 609 1914 
Q 372 2147 372 2553 
Q 372 3047 722 3315 
Q 1072 3584 1716 3584 
Q 2034 3584 2315 3537 
Q 2597 3491 2834 3397 
z
" transform="scale(0.015625)"/>
      </defs>
      <use xlink:href="#DejaVuSans-54"/>
      <use xlink:href="#DejaVuSans-6f" transform="translate(44.083984 0)"/>
      <use xlink:href="#DejaVuSans-74" transform="translate(105.265625 0)"/>
      <use xlink:href="#DejaVuSans-61" transform="translate(144.474609 0)"/>
      <use xlink:href="#DejaVuSans-6c" transform="translate(205.753906 0)"/>
      <use xlink:href="#DejaVuSans-20" transform="translate(233.537109 0)"/>
      <use xlink:href="#DejaVuSans-53" transform="translate(265.324219 0)"/>
      <use xlink:href="#DejaVuSans-68" transform="translate(328.800781 0)"/>
      <use xlink:href="#DejaVuSans-6f" transform="translate(392.179688 0)"/>
      <use xlink:href="#DejaVuSans-74" transform="translate(453.361328 0)"/>
      <use xlink:href="#DejaVuSans-73" transform="translate(492.570312 0)"/>
     </g>
    </g>
   </g>
   <g id="matplotlib.axis_2">
    <g id="ytick_1">
     <g id="line2d_13">
      <path d="M 44.66 510.987273 
L 812.480535 510.987273 
" clip-path="url(#p1a88acda46)" style="fill: none; stroke: #b0b0b0; stroke-opacity: 0.3; stroke-width: 0.8; stroke-linecap: square"/>
     </g>
     <g id="line2d_14">
      <defs>
       <path id="m446ea6e3af" d="M 0 0 
L -3.5 0 
" style="stroke: #000000; stroke-width: 0.8"/>
      </defs>
      <g>
       <use xlink:href="#m446ea6e3af" x="44.66" y="510.987273" style="stroke: #000000; stroke-width: 0.8"/>
      </g>
     </g>
     <g id="text_8">
      <!-- 4 -->
      <g transform="translate(31.2975 514.786491) scale(0.1 -0.1)">
       <defs>
        <path id="DejaVuSans-34" d="M 2419 4116 
L 825 1625 
L 2419 1625 
L 2419 4116 
z
M 2253 4666 
L 3047 4666 
L 3047 1625 
L 3713 1625 
L 3713 1100 
L 3047 1100 
L 3047 0 
L 2419 0 
L 2419 1100 
L 313 1100 
L 313 1709 
L 2253 4666 
z
" transform="scale(0.015625)"/>
       </defs>
       <use xlink:href="#DejaVuSans-34"/>
      </g>
     </g>
    </g>
    <g id="ytick_2">
     <g id="line2d_15">
      <path d="M 44.66 440.055804 
L 812.480535 440.055804 
" clip-path="url(#p1a88acda46)" style="fill: none; stroke: #b0b0b0; stroke-opacity: 0.3; stroke-width: 0.8; stroke-linecap: square"/>
     </g>
     <g id="line2d_16">
      <g>
       <use xlink:href="#m446ea6e3af" x="44.66" y="440.055804" style="stroke: #000000; stroke-width: 0.8"/>
      </g>
     </g>
     <g id="text_9">
      <!-- 6 -->
      <g transform="translate(31.2975 443.855023) scale(0.1 -0.1)">
       <use xlink:href="#DejaVuSans-36"/>
      </g>
     </g>
    </g>
    <g id="ytick_3">
     <g id="line2d_17">
      <path d="M 44.66 369.124336 
L 812.480535 369.124336 
" clip-path="url(#p1a88acda46)" style="fill: none; stroke: #b0b0b0; stroke-opacity: 0.3; stroke-width: 0.8; stroke-linecap: square"/>
     </g>
     <g id="line2d_18">
      <g>
       <use xlink:href="#m446ea6e3af" x="44.66" y="369.124336" style="stroke: #000000; stroke-width: 0.8"/>
      </g>
     </g>
     <g id="text_10">
      <!-- 8 -->
      <g transform="translate(31.2975 372.923554) scale(0.1 -0.1)">
       <use xlink:href="#DejaVuSans-38"/>
      </g>
     </g>
    </g>
    <g id="ytick_4">
     <g id="line2d_19">
      <path d="M 44.66 298.192867 
L 812.480535 298.192867 
" clip-path="url(#p1a88acda46)" style="fill: none; stroke: #b0b0b0; stroke-opacity: 0.3; stroke-width: 0.8; stroke-linecap: square"/>
     </g>
     <g id="line2d_20">
      <g>
       <use xlink:href="#m446ea6e3af" x="44.66" y="298.192867" style="stroke: #000000; stroke-width: 0.8"/>
      </g>
     </g>
     <g id="text_11">
      <!-- 10 -->
      <g transform="translate(24.935 301.992086) scale(0.1 -0.1)">
       <use xlink:href="#DejaVuSans-31"/>
       <use xlink:href="#DejaVuSans-30" transform="translate(63.623047 0)"/>
      </g>
     </g>
    </g>
    <g id="ytick_5">
     <g id="line2d_21">
      <path d="M 44.66 227.261399 
L 812.480535 227.261399 
" clip-path="url(#p1a88acda46)" style="fill: none; stroke: #b0b0b0; stroke-opacity: 0.3; stroke-width: 0.8; stroke-linecap: square"/>
     </g>
     <g id="line2d_22">
      <g>
       <use xlink:href="#m446ea6e3af" x="44.66" y="227.261399" style="stroke: #000000; stroke-width: 0.8"/>
      </g>
     </g>
     <g id="text_12">
      <!-- 12 -->
      <g transform="translate(24.935 231.060617) scale(0.1 -0.1)">
       <defs>
        <path id="DejaVuSans-32" d="M 1228 531 
L 3431 531 
L 3431 0 
L 469 0 
L 469 531 
Q 828 903 1448 1529 
Q 2069 2156 2228 2338 
Q 2531 2678 2651 2914 
Q 2772 3150 2772 3378 
Q 2772 3750 2511 3984 
Q 2250 4219 1831 4219 
Q 1534 4219 1204 4116 
Q 875 4013 500 3803 
L 500 4441 
Q 881 4594 1212 4672 
Q 1544 4750 1819 4750 
Q 2544 4750 2975 4387 
Q 3406 4025 3406 3419 
Q 3406 3131 3298 2873 
Q 3191 2616 2906 2266 
Q 2828 2175 2409 1742 
Q 1991 1309 1228 531 
z
" transform="scale(0.015625)"/>
       </defs>
       <use xlink:href="#DejaVuSans-31"/>
       <use xlink:href="#DejaVuSans-32" transform="translate(63.623047 0)"/>
      </g>
     </g>
    </g>
    <g id="ytick_6">
     <g id="line2d_23">
      <path d="M 44.66 156.32993 
L 812.480535 156.32993 
" clip-path="url(#p1a88acda46)" style="fill: none; stroke: #b0b0b0; stroke-opacity: 0.3; stroke-width: 0.8; stroke-linecap: square"/>
     </g>
     <g id="line2d_24">
      <g>
       <use xlink:href="#m446ea6e3af" x="44.66" y="156.32993" style="stroke: #000000; stroke-width: 0.8"/>
      </g>
     </g>
     <g id="text_13">
      <!-- 14 -->
      <g transform="translate(24.935 160.129149) scale(0.1 -0.1)">
       <use xlink:href="#DejaVuSans-31"/>
       <use xlink:href="#DejaVuSans-34" transform="translate(63.623047 0)"/>
      </g>
     </g>
    </g>
    <g id="ytick_7">
     <g id="line2d_25">
      <path d="M 44.66 85.398462 
L 812.480535 85.398462 
" clip-path="url(#p1a88acda46)" style="fill: none; stroke: #b0b0b0; stroke-opacity: 0.3; stroke-width: 0.8; stroke-linecap: square"/>
     </g>
     <g id="line2d_26">
      <g>
       <use xlink:href="#m446ea6e3af" x="44.66" y="85.398462" style="stroke: #000000; stroke-width: 0.8"/>
      </g>
     </g>
     <g id="text_14">
      <!-- 16 -->
      <g transform="translate(24.935 89.19768) scale(0.1 -0.1)">
       <use xlink:href="#DejaVuSans-31"/>
       <use xlink:href="#DejaVuSans-36" transform="translate(63.623047 0)"/>
      </g>
     </g>
    </g>
    <g id="text_15">
     <!-- Goals -->
     <g transform="translate(18.855313 294.451406) rotate(-90) scale(0.1 -0.1)">
      <defs>
       <path id="DejaVuSans-47" d="M 3809 666 
L 3809 1919 
L 2778 1919 
L 2778 2438 
L 4434 2438 
L 4434 434 
Q 4069 175 3628 42 
Q 3188 -91 2688 -91 
Q 1594 -91 976 548 
Q 359 1188 359 2328 
Q 359 3472 976 4111 
Q 1594 4750 2688 4750 
Q 3144 4750 3555 4637 
Q 3966 4525 4313 4306 
L 4313 3634 
Q 3963 3931 3569 4081 
Q 3175 4231 2741 4231 
Q 1884 4231 1454 3753 
Q 1025 3275 1025 2328 
Q 1025 1384 1454 906 
Q 1884 428 2741 428 
Q 3075 428 3337 486 
Q 3600 544 3809 666 
z
" transform="scale(0.015625)"/>
      </defs>
      <use xlink:href="#DejaVuSans-47"/>
      <use xlink:href="#DejaVuSans-6f" transform="translate(77.490234 0)"/>
      <use xlink:href="#DejaVuSans-61" transform="translate(138.671875 0)"/>
      <use xlink:href="#DejaVuSans-6c" transform="translate(199.951172 0)"/>
      <use xlink:href="#DejaVuSans-73" transform="translate(227.734375 0)"/>
     </g>
    </g>
   </g>
   <g id="patch_3">
    <path d="M 44.66 534.04 
L 44.66 26.88 
" style="fill: none; stroke: #000000; stroke-width: 0.8; stroke-linejoin: miter; stroke-linecap: square"/>
   </g>
   <g id="patch_4">
    <path d="M 812.480535 534.04 
L 812.480535 26.88 
" style="fill: none; stroke: #000000; stroke-width: 0.8; stroke-linejoin: miter; stroke-linecap: square"/>
   </g>
   <g id="patch_5">
    <path d="M 44.66 534.04 
L 812.480535 534.04 
" style="fill: none; stroke: #000000; stroke-width: 0.8; stroke-linejoin: miter; stroke-linecap: square"/>
   </g>
   <g id="patch_6">
    <path d="M 44.66 26.88 
L 812.480535 26.88 
" style="fill: none; stroke: #000000; stroke-width: 0.8; stroke-linejoin: miter; stroke-linecap: square"/>
   </g>
   <g id="text_16">
    <!-- Susanna Tapani -->
    <g transform="translate(120.620855 262.727133) scale(0.09 -0.09)">
     <defs>
      <path id="DejaVuSans-75" d="M 544 1381 
L 544 3500 
L 1119 3500 
L 1119 1403 
Q 1119 906 1312 657 
Q 1506 409 1894 409 
Q 2359 409 2629 706 
Q 2900 1003 2900 1516 
L 2900 3500 
L 3475 3500 
L 3475 0 
L 2900 0 
L 2900 538 
Q 2691 219 2414 64 
Q 2138 -91 1772 -91 
Q 1169 -91 856 284 
Q 544 659 544 1381 
z
M 1991 3584 
L 1991 3584 
z
" transform="scale(0.015625)"/>
      <path id="DejaVuSans-6e" d="M 3513 2113 
L 3513 0 
L 2938 0 
L 2938 2094 
Q 2938 2591 2744 2837 
Q 2550 3084 2163 3084 
Q 1697 3084 1428 2787 
Q 1159 2491 1159 1978 
L 1159 0 
L 581 0 
L 581 3500 
L 1159 3500 
L 1159 2956 
Q 1366 3272 1645 3428 
Q 1925 3584 2291 3584 
Q 2894 3584 3203 3211 
Q 3513 2838 3513 2113 
z
" transform="scale(0.015625)"/>
      <path id="DejaVuSans-70" d="M 1159 525 
L 1159 -1331 
L 581 -1331 
L 581 3500 
L 1159 3500 
L 1159 2969 
Q 1341 3281 1617 3432 
Q 1894 3584 2278 3584 
Q 2916 3584 3314 3078 
Q 3713 2572 3713 1747 
Q 3713 922 3314 415 
Q 2916 -91 2278 -91 
Q 1894 -91 1617 61 
Q 1341 213 1159 525 
z
M 3116 1747 
Q 3116 2381 2855 2742 
Q 2594 3103 2138 3103 
Q 1681 3103 1420 2742 
Q 1159 2381 1159 1747 
Q 1159 1113 1420 752 
Q 1681 391 2138 391 
Q 2594 391 2855 752 
Q 3116 1113 3116 1747 
z
" transform="scale(0.015625)"/>
      <path id="DejaVuSans-69" d="M 603 3500 
L 1178 3500 
L 1178 0 
L 603 0 
L 603 3500 
z
M 603 4863 
L 1178 4863 
L 1178 4134 
L 603 4134 
L 603 4863 
z
" transform="scale(0.015625)"/>
     </defs>
     <use xlink:href="#DejaVuSans-53"/>
     <use xlink:href="#DejaVuSans-75" transform="translate(63.476562 0)"/>
     <use xlink:href="#DejaVuSans-73" transform="translate(126.855469 0)"/>
     <use xlink:href="#DejaVuSans-61" transform="translate(178.955078 0)"/>
     <use xlink:href="#DejaVuSans-6e" transform="translate(240.234375 0)"/>
     <use xlink:href="#DejaVuSans-6e" transform="translate(303.613281 0)"/>
     <use xlink:href="#DejaVuSans-61" transform="translate(366.992188 0)"/>
     <use xlink:href="#DejaVuSans-20" transform="translate(428.271484 0)"/>
     <use xlink:href="#DejaVuSans-54" transform="translate(460.058594 0)"/>
     <use xlink:href="#DejaVuSans-61" transform="translate(504.642578 0)"/>
     <use xlink:href="#DejaVuSans-70" transform="translate(565.921875 0)"/>
     <use xlink:href="#DejaVuSans-61" transform="translate(629.398438 0)"/>
     <use xlink:href="#DejaVuSans-6e" transform="translate(690.677734 0)"/>
     <use xlink:href="#DejaVuSans-69" transform="translate(754.056641 0)"/>
    </g>
   </g>
   <g id="text_17">
    <!-- Marie-Philip Poulin -->
    <g transform="translate(558.593353 49.932727) scale(0.09 -0.09)">
     <defs>
      <path id="DejaVuSans-4d" d="M 628 4666 
L 1569 4666 
L 2759 1491 
L 3956 4666 
L 4897 4666 
L 4897 0 
L 4281 0 
L 4281 4097 
L 3078 897 
L 2444 897 
L 1241 4097 
L 1241 0 
L 628 0 
L 628 4666 
z
" transform="scale(0.015625)"/>
      <path id="DejaVuSans-72" d="M 2631 2963 
Q 2534 3019 2420 3045 
Q 2306 3072 2169 3072 
Q 1681 3072 1420 2755 
Q 1159 2438 1159 1844 
L 1159 0 
L 581 0 
L 581 3500 
L 1159 3500 
L 1159 2956 
Q 1341 3275 1631 3429 
Q 1922 3584 2338 3584 
Q 2397 3584 2469 3576 
Q 2541 3569 2628 3553 
L 2631 2963 
z
" transform="scale(0.015625)"/>
      <path id="DejaVuSans-65" d="M 3597 1894 
L 3597 1613 
L 953 1613 
Q 991 1019 1311 708 
Q 1631 397 2203 397 
Q 2534 397 2845 478 
Q 3156 559 3463 722 
L 3463 178 
Q 3153 47 2828 -22 
Q 2503 -91 2169 -91 
Q 1331 -91 842 396 
Q 353 884 353 1716 
Q 353 2575 817 3079 
Q 1281 3584 2069 3584 
Q 2775 3584 3186 3129 
Q 3597 2675 3597 1894 
z
M 3022 2063 
Q 3016 2534 2758 2815 
Q 2500 3097 2075 3097 
Q 1594 3097 1305 2825 
Q 1016 2553 972 2059 
L 3022 2063 
z
" transform="scale(0.015625)"/>
      <path id="DejaVuSans-2d" d="M 313 2009 
L 1997 2009 
L 1997 1497 
L 313 1497 
L 313 2009 
z
" transform="scale(0.015625)"/>
      <path id="DejaVuSans-50" d="M 1259 4147 
L 1259 2394 
L 2053 2394 
Q 2494 2394 2734 2622 
Q 2975 2850 2975 3272 
Q 2975 3691 2734 3919 
Q 2494 4147 2053 4147 
L 1259 4147 
z
M 628 4666 
L 2053 4666 
Q 2838 4666 3239 4311 
Q 3641 3956 3641 3272 
Q 3641 2581 3239 2228 
Q 2838 1875 2053 1875 
L 1259 1875 
L 1259 0 
L 628 0 
L 628 4666 
z
" transform="scale(0.015625)"/>
     </defs>
     <use xlink:href="#DejaVuSans-4d"/>
     <use xlink:href="#DejaVuSans-61" transform="translate(86.279297 0)"/>
     <use xlink:href="#DejaVuSans-72" transform="translate(147.558594 0)"/>
     <use xlink:href="#DejaVuSans-69" transform="translate(188.671875 0)"/>
     <use xlink:href="#DejaVuSans-65" transform="translate(216.455078 0)"/>
     <use xlink:href="#DejaVuSans-2d" transform="translate(277.978516 0)"/>
     <use xlink:href="#DejaVuSans-50" transform="translate(314.0625 0)"/>
     <use xlink:href="#DejaVuSans-68" transform="translate(374.365234 0)"/>
     <use xlink:href="#DejaVuSans-69" transform="translate(437.744141 0)"/>
     <use xlink:href="#DejaVuSans-6c" transform="translate(465.527344 0)"/>
     <use xlink:href="#DejaVuSans-69" transform="translate(493.310547 0)"/>
     <use xlink:href="#DejaVuSans-70" transform="translate(521.09375 0)"/>
     <use xlink:href="#DejaVuSans-20" transform="translate(584.570312 0)"/>
     <use xlink:href="#DejaVuSans-50" transform="translate(616.357422 0)"/>
     <use xlink:href="#DejaVuSans-6f" transform="translate(673.035156 0)"/>
     <use xlink:href="#DejaVuSans-75" transform="translate(734.216797 0)"/>
     <use xlink:href="#DejaVuSans-6c" transform="translate(797.595703 0)"/>
     <use xlink:href="#DejaVuSans-69" transform="translate(825.378906 0)"/>
     <use xlink:href="#DejaVuSans-6e" transform="translate(853.162109 0)"/>
    </g>
   </g>
   <g id="text_18">
    <!-- Alex Carpenter -->
    <g transform="translate(106.934214 298.192867) scale(0.09 -0.09)">
     <defs>
      <path id="DejaVuSans-41" d="M 2188 4044 
L 1331 1722 
L 3047 1722 
L 2188 4044 
z
M 1831 4666 
L 2547 4666 
L 4325 0 
L 3669 0 
L 3244 1197 
L 1141 1197 
L 716 0 
L 50 0 
L 1831 4666 
z
" transform="scale(0.015625)"/>
      <path id="DejaVuSans-78" d="M 3513 3500 
L 2247 1797 
L 3578 0 
L 2900 0 
L 1881 1375 
L 863 0 
L 184 0 
L 1544 1831 
L 300 3500 
L 978 3500 
L 1906 2253 
L 2834 3500 
L 3513 3500 
z
" transform="scale(0.015625)"/>
      <path id="DejaVuSans-43" d="M 4122 4306 
L 4122 3641 
Q 3803 3938 3442 4084 
Q 3081 4231 2675 4231 
Q 1875 4231 1450 3742 
Q 1025 3253 1025 2328 
Q 1025 1406 1450 917 
Q 1875 428 2675 428 
Q 3081 428 3442 575 
Q 3803 722 4122 1019 
L 4122 359 
Q 3791 134 3420 21 
Q 3050 -91 2638 -91 
Q 1578 -91 968 557 
Q 359 1206 359 2328 
Q 359 3453 968 4101 
Q 1578 4750 2638 4750 
Q 3056 4750 3426 4639 
Q 3797 4528 4122 4306 
z
" transform="scale(0.015625)"/>
     </defs>
     <use xlink:href="#DejaVuSans-41"/>
     <use xlink:href="#DejaVuSans-6c" transform="translate(68.408203 0)"/>
     <use xlink:href="#DejaVuSans-65" transform="translate(96.191406 0)"/>
     <use xlink:href="#DejaVuSans-78" transform="translate(155.964844 0)"/>
     <use xlink:href="#DejaVuSans-20" transform="translate(215.144531 0)"/>
     <use xlink:href="#DejaVuSans-43" transform="translate(246.931641 0)"/>
     <use xlink:href="#DejaVuSans-61" transform="translate(316.755859 0)"/>
     <use xlink:href="#DejaVuSans-72" transform="translate(378.035156 0)"/>
     <use xlink:href="#DejaVuSans-70" transform="translate(419.148438 0)"/>
     <use xlink:href="#DejaVuSans-65" transform="translate(482.625 0)"/>
     <use xlink:href="#DejaVuSans-6e" transform="translate(544.148438 0)"/>
     <use xlink:href="#DejaVuSans-74" transform="translate(607.527344 0)"/>
     <use xlink:href="#DejaVuSans-65" transform="translate(646.736328 0)"/>
     <use xlink:href="#DejaVuSans-72" transform="translate(708.259766 0)"/>
    </g>
   </g>
   <g id="text_19">
    <!-- Tereza Vanišová -->
    <g transform="translate(531.220071 120.864196) scale(0.09 -0.09)">
     <defs>
      <path id="DejaVuSans-7a" d="M 353 3500 
L 3084 3500 
L 3084 2975 
L 922 459 
L 3084 459 
L 3084 0 
L 275 0 
L 275 525 
L 2438 3041 
L 353 3041 
L 353 3500 
z
" transform="scale(0.015625)"/>
      <path id="DejaVuSans-56" d="M 1831 0 
L 50 4666 
L 709 4666 
L 2188 738 
L 3669 4666 
L 4325 4666 
L 2547 0 
L 1831 0 
z
" transform="scale(0.015625)"/>
      <path id="DejaVuSans-161" d="M 2834 3397 
L 2834 2853 
Q 2591 2978 2328 3040 
Q 2066 3103 1784 3103 
Q 1356 3103 1142 2972 
Q 928 2841 928 2578 
Q 928 2378 1081 2264 
Q 1234 2150 1697 2047 
L 1894 2003 
Q 2506 1872 2764 1633 
Q 3022 1394 3022 966 
Q 3022 478 2636 193 
Q 2250 -91 1575 -91 
Q 1294 -91 989 -36 
Q 684 19 347 128 
L 347 722 
Q 666 556 975 473 
Q 1284 391 1588 391 
Q 1994 391 2212 530 
Q 2431 669 2431 922 
Q 2431 1156 2273 1281 
Q 2116 1406 1581 1522 
L 1381 1569 
Q 847 1681 609 1914 
Q 372 2147 372 2553 
Q 372 3047 722 3315 
Q 1072 3584 1716 3584 
Q 2034 3584 2315 3537 
Q 2597 3491 2834 3397 
z
M 1501 3944 
L 736 5119 
L 1170 5119 
L 1733 4353 
L 2295 5119 
L 2729 5119 
L 1964 3944 
L 1501 3944 
z
M 1720 3584 
L 1720 3584 
z
" transform="scale(0.015625)"/>
      <path id="DejaVuSans-76" d="M 191 3500 
L 800 3500 
L 1894 563 
L 2988 3500 
L 3597 3500 
L 2284 0 
L 1503 0 
L 191 3500 
z
" transform="scale(0.015625)"/>
      <path id="DejaVuSans-e1" d="M 2194 1759 
Q 1497 1759 1228 1600 
Q 959 1441 959 1056 
Q 959 750 1161 570 
Q 1363 391 1709 391 
Q 2188 391 2477 730 
Q 2766 1069 2766 1631 
L 2766 1759 
L 2194 1759 
z
M 3341 1997 
L 3341 0 
L 2766 0 
L 2766 531 
Q 2569 213 2275 61 
Q 1981 -91 1556 -91 
Q 1019 -91 701 211 
Q 384 513 384 1019 
Q 384 1609 779 1909 
Q 1175 2209 1959 2209 
L 2766 2209 
L 2766 2266 
Q 2766 2663 2505 2880 
Q 2244 3097 1772 3097 
Q 1472 3097 1187 3025 
Q 903 2953 641 2809 
L 641 3341 
Q 956 3463 1253 3523 
Q 1550 3584 1831 3584 
Q 2591 3584 2966 3190 
Q 3341 2797 3341 1997 
z
M 2290 5119 
L 2912 5119 
L 1894 3944 
L 1415 3944 
L 2290 5119 
z
" transform="scale(0.015625)"/>
     </defs>
     <use xlink:href="#DejaVuSans-54"/>
     <use xlink:href="#DejaVuSans-65" transform="translate(44.083984 0)"/>
     <use xlink:href="#DejaVuSans-72" transform="translate(105.607422 0)"/>
     <use xlink:href="#DejaVuSans-65" transform="translate(144.470703 0)"/>
     <use xlink:href="#DejaVuSans-7a" transform="translate(205.994141 0)"/>
     <use xlink:href="#DejaVuSans-61" transform="translate(258.484375 0)"/>
     <use xlink:href="#DejaVuSans-20" transform="translate(319.763672 0)"/>
     <use xlink:href="#DejaVuSans-56" transform="translate(351.550781 0)"/>
     <use xlink:href="#DejaVuSans-61" transform="translate(412.208984 0)"/>
     <use xlink:href="#DejaVuSans-6e" transform="translate(473.488281 0)"/>
     <use xlink:href="#DejaVuSans-69" transform="translate(536.867188 0)"/>
     <use xlink:href="#DejaVuSans-161" transform="translate(564.650391 0)"/>
     <use xlink:href="#DejaVuSans-6f" transform="translate(616.75 0)"/>
     <use xlink:href="#DejaVuSans-76" transform="translate(677.931641 0)"/>
     <use xlink:href="#DejaVuSans-e1" transform="translate(737.111328 0)"/>
    </g>
   </g>
   <g id="text_20">
    <!-- Hannah Miller -->
    <g transform="translate(161.680777 298.192867) scale(0.09 -0.09)">
     <defs>
      <path id="DejaVuSans-48" d="M 628 4666 
L 1259 4666 
L 1259 2753 
L 3553 2753 
L 3553 4666 
L 4184 4666 
L 4184 0 
L 3553 0 
L 3553 2222 
L 1259 2222 
L 1259 0 
L 628 0 
L 628 4666 
z
" transform="scale(0.015625)"/>
     </defs>
     <use xlink:href="#DejaVuSans-48"/>
     <use xlink:href="#DejaVuSans-61" transform="translate(75.195312 0)"/>
     <use xlink:href="#DejaVuSans-6e" transform="translate(136.474609 0)"/>
     <use xlink:href="#DejaVuSans-6e" transform="translate(199.853516 0)"/>
     <use xlink:href="#DejaVuSans-61" transform="translate(263.232422 0)"/>
     <use xlink:href="#DejaVuSans-68" transform="translate(324.511719 0)"/>
     <use xlink:href="#DejaVuSans-20" transform="translate(387.890625 0)"/>
     <use xlink:href="#DejaVuSans-4d" transform="translate(419.677734 0)"/>
     <use xlink:href="#DejaVuSans-69" transform="translate(505.957031 0)"/>
     <use xlink:href="#DejaVuSans-6c" transform="translate(533.740234 0)"/>
     <use xlink:href="#DejaVuSans-6c" transform="translate(561.523438 0)"/>
     <use xlink:href="#DejaVuSans-65" transform="translate(589.306641 0)"/>
     <use xlink:href="#DejaVuSans-72" transform="translate(650.830078 0)"/>
    </g>
   </g>
   <g id="text_21">
    <!-- Hilary Knight -->
    <g transform="translate(750.20632 120.864196) scale(0.09 -0.09)">
     <defs>
      <path id="DejaVuSans-79" d="M 2059 -325 
Q 1816 -950 1584 -1140 
Q 1353 -1331 966 -1331 
L 506 -1331 
L 506 -850 
L 844 -850 
Q 1081 -850 1212 -737 
Q 1344 -625 1503 -206 
L 1606 56 
L 191 3500 
L 800 3500 
L 1894 763 
L 2988 3500 
L 3597 3500 
L 2059 -325 
z
" transform="scale(0.015625)"/>
      <path id="DejaVuSans-4b" d="M 628 4666 
L 1259 4666 
L 1259 2694 
L 3353 4666 
L 4166 4666 
L 1850 2491 
L 4331 0 
L 3500 0 
L 1259 2247 
L 1259 0 
L 628 0 
L 628 4666 
z
" transform="scale(0.015625)"/>
      <path id="DejaVuSans-67" d="M 2906 1791 
Q 2906 2416 2648 2759 
Q 2391 3103 1925 3103 
Q 1463 3103 1205 2759 
Q 947 2416 947 1791 
Q 947 1169 1205 825 
Q 1463 481 1925 481 
Q 2391 481 2648 825 
Q 2906 1169 2906 1791 
z
M 3481 434 
Q 3481 -459 3084 -895 
Q 2688 -1331 1869 -1331 
Q 1566 -1331 1297 -1286 
Q 1028 -1241 775 -1147 
L 775 -588 
Q 1028 -725 1275 -790 
Q 1522 -856 1778 -856 
Q 2344 -856 2625 -561 
Q 2906 -266 2906 331 
L 2906 616 
Q 2728 306 2450 153 
Q 2172 0 1784 0 
Q 1141 0 747 490 
Q 353 981 353 1791 
Q 353 2603 747 3093 
Q 1141 3584 1784 3584 
Q 2172 3584 2450 3431 
Q 2728 3278 2906 2969 
L 2906 3500 
L 3481 3500 
L 3481 434 
z
" transform="scale(0.015625)"/>
     </defs>
     <use xlink:href="#DejaVuSans-48"/>
     <use xlink:href="#DejaVuSans-69" transform="translate(75.195312 0)"/>
     <use xlink:href="#DejaVuSans-6c" transform="translate(102.978516 0)"/>
     <use xlink:href="#DejaVuSans-61" transform="translate(130.761719 0)"/>
     <use xlink:href="#DejaVuSans-72" transform="translate(192.041016 0)"/>
     <use xlink:href="#DejaVuSans-79" transform="translate(233.154297 0)"/>
     <use xlink:href="#DejaVuSans-20" transform="translate(292.333984 0)"/>
     <use xlink:href="#DejaVuSans-4b" transform="translate(324.121094 0)"/>
     <use xlink:href="#DejaVuSans-6e" transform="translate(389.697266 0)"/>
     <use xlink:href="#DejaVuSans-69" transform="translate(453.076172 0)"/>
     <use xlink:href="#DejaVuSans-67" transform="translate(480.859375 0)"/>
     <use xlink:href="#DejaVuSans-68" transform="translate(544.335938 0)"/>
     <use xlink:href="#DejaVuSans-74" transform="translate(607.714844 0)"/>
    </g>
   </g>
   <g id="text_22">
    <!-- Alina Müller -->
    <g transform="translate(106.934214 404.59007) scale(0.09 -0.09)">
     <defs>
      <path id="DejaVuSans-fc" d="M 544 1381 
L 544 3500 
L 1119 3500 
L 1119 1403 
Q 1119 906 1312 657 
Q 1506 409 1894 409 
Q 2359 409 2629 706 
Q 2900 1003 2900 1516 
L 2900 3500 
L 3475 3500 
L 3475 0 
L 2900 0 
L 2900 538 
Q 2691 219 2414 64 
Q 2138 -91 1772 -91 
Q 1169 -91 856 284 
Q 544 659 544 1381 
z
M 1991 3584 
L 1991 3584 
z
M 2278 4850 
L 2912 4850 
L 2912 4219 
L 2278 4219 
L 2278 4850 
z
M 1056 4850 
L 1690 4850 
L 1690 4219 
L 1056 4219 
L 1056 4850 
z
" transform="scale(0.015625)"/>
     </defs>
     <use xlink:href="#DejaVuSans-41"/>
     <use xlink:href="#DejaVuSans-6c" transform="translate(68.408203 0)"/>
     <use xlink:href="#DejaVuSans-69" transform="translate(96.191406 0)"/>
     <use xlink:href="#DejaVuSans-6e" transform="translate(123.974609 0)"/>
     <use xlink:href="#DejaVuSans-61" transform="translate(187.353516 0)"/>
     <use xlink:href="#DejaVuSans-20" transform="translate(248.632812 0)"/>
     <use xlink:href="#DejaVuSans-4d" transform="translate(280.419922 0)"/>
     <use xlink:href="#DejaVuSans-fc" transform="translate(366.699219 0)"/>
     <use xlink:href="#DejaVuSans-6c" transform="translate(430.078125 0)"/>
     <use xlink:href="#DejaVuSans-6c" transform="translate(457.861328 0)"/>
     <use xlink:href="#DejaVuSans-65" transform="translate(485.644531 0)"/>
     <use xlink:href="#DejaVuSans-72" transform="translate(547.167969 0)"/>
    </g>
   </g>
   <g id="text_23">
    <!-- Jesse Compher -->
    <g transform="translate(312.233823 333.658601) scale(0.09 -0.09)">
     <defs>
      <path id="DejaVuSans-4a" d="M 628 4666 
L 1259 4666 
L 1259 325 
Q 1259 -519 939 -900 
Q 619 -1281 -91 -1281 
L -331 -1281 
L -331 -750 
L -134 -750 
Q 284 -750 456 -515 
Q 628 -281 628 325 
L 628 4666 
z
" transform="scale(0.015625)"/>
      <path id="DejaVuSans-6d" d="M 3328 2828 
Q 3544 3216 3844 3400 
Q 4144 3584 4550 3584 
Q 5097 3584 5394 3201 
Q 5691 2819 5691 2113 
L 5691 0 
L 5113 0 
L 5113 2094 
Q 5113 2597 4934 2840 
Q 4756 3084 4391 3084 
Q 3944 3084 3684 2787 
Q 3425 2491 3425 1978 
L 3425 0 
L 2847 0 
L 2847 2094 
Q 2847 2600 2669 2842 
Q 2491 3084 2119 3084 
Q 1678 3084 1418 2786 
Q 1159 2488 1159 1978 
L 1159 0 
L 581 0 
L 581 3500 
L 1159 3500 
L 1159 2956 
Q 1356 3278 1631 3431 
Q 1906 3584 2284 3584 
Q 2666 3584 2933 3390 
Q 3200 3197 3328 2828 
z
" transform="scale(0.015625)"/>
     </defs>
     <use xlink:href="#DejaVuSans-4a"/>
     <use xlink:href="#DejaVuSans-65" transform="translate(29.492188 0)"/>
     <use xlink:href="#DejaVuSans-73" transform="translate(91.015625 0)"/>
     <use xlink:href="#DejaVuSans-73" transform="translate(143.115234 0)"/>
     <use xlink:href="#DejaVuSans-65" transform="translate(195.214844 0)"/>
     <use xlink:href="#DejaVuSans-20" transform="translate(256.738281 0)"/>
     <use xlink:href="#DejaVuSans-43" transform="translate(288.525391 0)"/>
     <use xlink:href="#DejaVuSans-6f" transform="translate(358.349609 0)"/>
     <use xlink:href="#DejaVuSans-6d" transform="translate(419.53125 0)"/>
     <use xlink:href="#DejaVuSans-70" transform="translate(516.943359 0)"/>
     <use xlink:href="#DejaVuSans-68" transform="translate(580.419922 0)"/>
     <use xlink:href="#DejaVuSans-65" transform="translate(643.798828 0)"/>
     <use xlink:href="#DejaVuSans-72" transform="translate(705.322266 0)"/>
    </g>
   </g>
   <g id="text_24">
    <!-- Kendall Coyne Schofield -->
    <g transform="translate(435.413588 298.192867) scale(0.09 -0.09)">
     <defs>
      <path id="DejaVuSans-64" d="M 2906 2969 
L 2906 4863 
L 3481 4863 
L 3481 0 
L 2906 0 
L 2906 525 
Q 2725 213 2448 61 
Q 2172 -91 1784 -91 
Q 1150 -91 751 415 
Q 353 922 353 1747 
Q 353 2572 751 3078 
Q 1150 3584 1784 3584 
Q 2172 3584 2448 3432 
Q 2725 3281 2906 2969 
z
M 947 1747 
Q 947 1113 1208 752 
Q 1469 391 1925 391 
Q 2381 391 2643 752 
Q 2906 1113 2906 1747 
Q 2906 2381 2643 2742 
Q 2381 3103 1925 3103 
Q 1469 3103 1208 2742 
Q 947 2381 947 1747 
z
" transform="scale(0.015625)"/>
      <path id="DejaVuSans-63" d="M 3122 3366 
L 3122 2828 
Q 2878 2963 2633 3030 
Q 2388 3097 2138 3097 
Q 1578 3097 1268 2742 
Q 959 2388 959 1747 
Q 959 1106 1268 751 
Q 1578 397 2138 397 
Q 2388 397 2633 464 
Q 2878 531 3122 666 
L 3122 134 
Q 2881 22 2623 -34 
Q 2366 -91 2075 -91 
Q 1284 -91 818 406 
Q 353 903 353 1747 
Q 353 2603 823 3093 
Q 1294 3584 2113 3584 
Q 2378 3584 2631 3529 
Q 2884 3475 3122 3366 
z
" transform="scale(0.015625)"/>
      <path id="DejaVuSans-66" d="M 2375 4863 
L 2375 4384 
L 1825 4384 
Q 1516 4384 1395 4259 
Q 1275 4134 1275 3809 
L 1275 3500 
L 2222 3500 
L 2222 3053 
L 1275 3053 
L 1275 0 
L 697 0 
L 697 3053 
L 147 3053 
L 147 3500 
L 697 3500 
L 697 3744 
Q 697 4328 969 4595 
Q 1241 4863 1831 4863 
L 2375 4863 
z
" transform="scale(0.015625)"/>
     </defs>
     <use xlink:href="#DejaVuSans-4b"/>
     <use xlink:href="#DejaVuSans-65" transform="translate(60.576172 0)"/>
     <use xlink:href="#DejaVuSans-6e" transform="translate(122.099609 0)"/>
     <use xlink:href="#DejaVuSans-64" transform="translate(185.478516 0)"/>
     <use xlink:href="#DejaVuSans-61" transform="translate(248.955078 0)"/>
     <use xlink:href="#DejaVuSans-6c" transform="translate(310.234375 0)"/>
     <use xlink:href="#DejaVuSans-6c" transform="translate(338.017578 0)"/>
     <use xlink:href="#DejaVuSans-20" transform="translate(365.800781 0)"/>
     <use xlink:href="#DejaVuSans-43" transform="translate(397.587891 0)"/>
     <use xlink:href="#DejaVuSans-6f" transform="translate(467.412109 0)"/>
     <use xlink:href="#DejaVuSans-79" transform="translate(528.59375 0)"/>
     <use xlink:href="#DejaVuSans-6e" transform="translate(587.773438 0)"/>
     <use xlink:href="#DejaVuSans-65" transform="translate(651.152344 0)"/>
     <use xlink:href="#DejaVuSans-20" transform="translate(712.675781 0)"/>
     <use xlink:href="#DejaVuSans-53" transform="translate(744.462891 0)"/>
     <use xlink:href="#DejaVuSans-63" transform="translate(807.939453 0)"/>
     <use xlink:href="#DejaVuSans-68" transform="translate(862.919922 0)"/>
     <use xlink:href="#DejaVuSans-6f" transform="translate(926.298828 0)"/>
     <use xlink:href="#DejaVuSans-66" transform="translate(987.480469 0)"/>
     <use xlink:href="#DejaVuSans-69" transform="translate(1022.685547 0)"/>
     <use xlink:href="#DejaVuSans-65" transform="translate(1050.46875 0)"/>
     <use xlink:href="#DejaVuSans-6c" transform="translate(1111.992188 0)"/>
     <use xlink:href="#DejaVuSans-64" transform="translate(1139.775391 0)"/>
    </g>
   </g>
   <g id="text_25">
    <!-- Sarah Fillier -->
    <g transform="translate(709.146399 227.261399) scale(0.09 -0.09)">
     <defs>
      <path id="DejaVuSans-46" d="M 628 4666 
L 3309 4666 
L 3309 4134 
L 1259 4134 
L 1259 2759 
L 3109 2759 
L 3109 2228 
L 1259 2228 
L 1259 0 
L 628 0 
L 628 4666 
z
" transform="scale(0.015625)"/>
     </defs>
     <use xlink:href="#DejaVuSans-53"/>
     <use xlink:href="#DejaVuSans-61" transform="translate(63.476562 0)"/>
     <use xlink:href="#DejaVuSans-72" transform="translate(124.755859 0)"/>
     <use xlink:href="#DejaVuSans-61" transform="translate(165.869141 0)"/>
     <use xlink:href="#DejaVuSans-68" transform="translate(227.148438 0)"/>
     <use xlink:href="#DejaVuSans-20" transform="translate(290.527344 0)"/>
     <use xlink:href="#DejaVuSans-46" transform="translate(322.314453 0)"/>
     <use xlink:href="#DejaVuSans-69" transform="translate(372.583984 0)"/>
     <use xlink:href="#DejaVuSans-6c" transform="translate(400.367188 0)"/>
     <use xlink:href="#DejaVuSans-6c" transform="translate(428.150391 0)"/>
     <use xlink:href="#DejaVuSans-69" transform="translate(455.933594 0)"/>
     <use xlink:href="#DejaVuSans-65" transform="translate(483.716797 0)"/>
     <use xlink:href="#DejaVuSans-72" transform="translate(545.240234 0)"/>
    </g>
   </g>
   <g id="text_26">
    <!-- Jessie Eldridge -->
    <g transform="translate(394.353666 333.658601) scale(0.09 -0.09)">
     <defs>
      <path id="DejaVuSans-45" d="M 628 4666 
L 3578 4666 
L 3578 4134 
L 1259 4134 
L 1259 2753 
L 3481 2753 
L 3481 2222 
L 1259 2222 
L 1259 531 
L 3634 531 
L 3634 0 
L 628 0 
L 628 4666 
z
" transform="scale(0.015625)"/>
     </defs>
     <use xlink:href="#DejaVuSans-4a"/>
     <use xlink:href="#DejaVuSans-65" transform="translate(29.492188 0)"/>
     <use xlink:href="#DejaVuSans-73" transform="translate(91.015625 0)"/>
     <use xlink:href="#DejaVuSans-73" transform="translate(143.115234 0)"/>
     <use xlink:href="#DejaVuSans-69" transform="translate(195.214844 0)"/>
     <use xlink:href="#DejaVuSans-65" transform="translate(222.998047 0)"/>
     <use xlink:href="#DejaVuSans-20" transform="translate(284.521484 0)"/>
     <use xlink:href="#DejaVuSans-45" transform="translate(316.308594 0)"/>
     <use xlink:href="#DejaVuSans-6c" transform="translate(379.492188 0)"/>
     <use xlink:href="#DejaVuSans-64" transform="translate(407.275391 0)"/>
     <use xlink:href="#DejaVuSans-72" transform="translate(470.751953 0)"/>
     <use xlink:href="#DejaVuSans-69" transform="translate(511.865234 0)"/>
     <use xlink:href="#DejaVuSans-64" transform="translate(539.648438 0)"/>
     <use xlink:href="#DejaVuSans-67" transform="translate(603.125 0)"/>
     <use xlink:href="#DejaVuSans-65" transform="translate(666.601562 0)"/>
    </g>
   </g>
   <g id="text_27">
    <!-- Taylor Heise -->
    <g transform="translate(298.547182 369.124336) scale(0.09 -0.09)">
     <use xlink:href="#DejaVuSans-54"/>
     <use xlink:href="#DejaVuSans-61" transform="translate(44.583984 0)"/>
     <use xlink:href="#DejaVuSans-79" transform="translate(105.863281 0)"/>
     <use xlink:href="#DejaVuSans-6c" transform="translate(165.042969 0)"/>
     <use xlink:href="#DejaVuSans-6f" transform="translate(192.826172 0)"/>
     <use xlink:href="#DejaVuSans-72" transform="translate(254.007812 0)"/>
     <use xlink:href="#DejaVuSans-20" transform="translate(295.121094 0)"/>
     <use xlink:href="#DejaVuSans-48" transform="translate(326.908203 0)"/>
     <use xlink:href="#DejaVuSans-65" transform="translate(402.103516 0)"/>
     <use xlink:href="#DejaVuSans-69" transform="translate(463.626953 0)"/>
     <use xlink:href="#DejaVuSans-73" transform="translate(491.410156 0)"/>
     <use xlink:href="#DejaVuSans-65" transform="translate(543.509766 0)"/>
    </g>
   </g>
   <g id="text_28">
    <!-- Britta Curl-Salemme -->
    <g transform="translate(216.427339 404.59007) scale(0.09 -0.09)">
     <defs>
      <path id="DejaVuSans-42" d="M 1259 2228 
L 1259 519 
L 2272 519 
Q 2781 519 3026 730 
Q 3272 941 3272 1375 
Q 3272 1813 3026 2020 
Q 2781 2228 2272 2228 
L 1259 2228 
z
M 1259 4147 
L 1259 2741 
L 2194 2741 
Q 2656 2741 2882 2914 
Q 3109 3088 3109 3444 
Q 3109 3797 2882 3972 
Q 2656 4147 2194 4147 
L 1259 4147 
z
M 628 4666 
L 2241 4666 
Q 2963 4666 3353 4366 
Q 3744 4066 3744 3513 
Q 3744 3084 3544 2831 
Q 3344 2578 2956 2516 
Q 3422 2416 3680 2098 
Q 3938 1781 3938 1306 
Q 3938 681 3513 340 
Q 3088 0 2303 0 
L 628 0 
L 628 4666 
z
" transform="scale(0.015625)"/>
     </defs>
     <use xlink:href="#DejaVuSans-42"/>
     <use xlink:href="#DejaVuSans-72" transform="translate(68.603516 0)"/>
     <use xlink:href="#DejaVuSans-69" transform="translate(109.716797 0)"/>
     <use xlink:href="#DejaVuSans-74" transform="translate(137.5 0)"/>
     <use xlink:href="#DejaVuSans-74" transform="translate(176.708984 0)"/>
     <use xlink:href="#DejaVuSans-61" transform="translate(215.917969 0)"/>
     <use xlink:href="#DejaVuSans-20" transform="translate(277.197266 0)"/>
     <use xlink:href="#DejaVuSans-43" transform="translate(308.984375 0)"/>
     <use xlink:href="#DejaVuSans-75" transform="translate(378.808594 0)"/>
     <use xlink:href="#DejaVuSans-72" transform="translate(442.1875 0)"/>
     <use xlink:href="#DejaVuSans-6c" transform="translate(483.300781 0)"/>
     <use xlink:href="#DejaVuSans-2d" transform="translate(511.083984 0)"/>
     <use xlink:href="#DejaVuSans-53" transform="translate(547.167969 0)"/>
     <use xlink:href="#DejaVuSans-61" transform="translate(610.644531 0)"/>
     <use xlink:href="#DejaVuSans-6c" transform="translate(671.923828 0)"/>
     <use xlink:href="#DejaVuSans-65" transform="translate(699.707031 0)"/>
     <use xlink:href="#DejaVuSans-6d" transform="translate(761.230469 0)"/>
     <use xlink:href="#DejaVuSans-6d" transform="translate(858.642578 0)"/>
     <use xlink:href="#DejaVuSans-65" transform="translate(956.054688 0)"/>
    </g>
   </g>
   <g id="text_29">
    <!-- Daryl Watts -->
    <g transform="translate(681.773118 262.727133) scale(0.09 -0.09)">
     <defs>
      <path id="DejaVuSans-44" d="M 1259 4147 
L 1259 519 
L 2022 519 
Q 2988 519 3436 956 
Q 3884 1394 3884 2338 
Q 3884 3275 3436 3711 
Q 2988 4147 2022 4147 
L 1259 4147 
z
M 628 4666 
L 1925 4666 
Q 3281 4666 3915 4102 
Q 4550 3538 4550 2338 
Q 4550 1131 3912 565 
Q 3275 0 1925 0 
L 628 0 
L 628 4666 
z
" transform="scale(0.015625)"/>
      <path id="DejaVuSans-57" d="M 213 4666 
L 850 4666 
L 1831 722 
L 2809 4666 
L 3519 4666 
L 4500 722 
L 5478 4666 
L 6119 4666 
L 4947 0 
L 4153 0 
L 3169 4050 
L 2175 0 
L 1381 0 
L 213 4666 
z
" transform="scale(0.015625)"/>
     </defs>
     <use xlink:href="#DejaVuSans-44"/>
     <use xlink:href="#DejaVuSans-61" transform="translate(77.001953 0)"/>
     <use xlink:href="#DejaVuSans-72" transform="translate(138.28125 0)"/>
     <use xlink:href="#DejaVuSans-79" transform="translate(179.394531 0)"/>
     <use xlink:href="#DejaVuSans-6c" transform="translate(238.574219 0)"/>
     <use xlink:href="#DejaVuSans-20" transform="translate(266.357422 0)"/>
     <use xlink:href="#DejaVuSans-57" transform="translate(298.144531 0)"/>
     <use xlink:href="#DejaVuSans-61" transform="translate(390.646484 0)"/>
     <use xlink:href="#DejaVuSans-74" transform="translate(451.925781 0)"/>
     <use xlink:href="#DejaVuSans-74" transform="translate(491.134766 0)"/>
     <use xlink:href="#DejaVuSans-73" transform="translate(530.34375 0)"/>
    </g>
   </g>
   <g id="text_30">
    <!-- Emily Clark -->
    <g transform="translate(503.84679 333.658601) scale(0.09 -0.09)">
     <defs>
      <path id="DejaVuSans-6b" d="M 581 4863 
L 1159 4863 
L 1159 1991 
L 2875 3500 
L 3609 3500 
L 1753 1863 
L 3688 0 
L 2938 0 
L 1159 1709 
L 1159 0 
L 581 0 
L 581 4863 
z
" transform="scale(0.015625)"/>
     </defs>
     <use xlink:href="#DejaVuSans-45"/>
     <use xlink:href="#DejaVuSans-6d" transform="translate(63.183594 0)"/>
     <use xlink:href="#DejaVuSans-69" transform="translate(160.595703 0)"/>
     <use xlink:href="#DejaVuSans-6c" transform="translate(188.378906 0)"/>
     <use xlink:href="#DejaVuSans-79" transform="translate(216.162109 0)"/>
     <use xlink:href="#DejaVuSans-20" transform="translate(275.341797 0)"/>
     <use xlink:href="#DejaVuSans-43" transform="translate(307.128906 0)"/>
     <use xlink:href="#DejaVuSans-6c" transform="translate(376.953125 0)"/>
     <use xlink:href="#DejaVuSans-61" transform="translate(404.736328 0)"/>
     <use xlink:href="#DejaVuSans-72" transform="translate(466.015625 0)"/>
     <use xlink:href="#DejaVuSans-6b" transform="translate(507.128906 0)"/>
    </g>
   </g>
   <g id="text_31">
    <!-- Renata Fast -->
    <g transform="translate(147.994136 440.055804) scale(0.09 -0.09)">
     <defs>
      <path id="DejaVuSans-52" d="M 2841 2188 
Q 3044 2119 3236 1894 
Q 3428 1669 3622 1275 
L 4263 0 
L 3584 0 
L 2988 1197 
Q 2756 1666 2539 1819 
Q 2322 1972 1947 1972 
L 1259 1972 
L 1259 0 
L 628 0 
L 628 4666 
L 2053 4666 
Q 2853 4666 3247 4331 
Q 3641 3997 3641 3322 
Q 3641 2881 3436 2590 
Q 3231 2300 2841 2188 
z
M 1259 4147 
L 1259 2491 
L 2053 2491 
Q 2509 2491 2742 2702 
Q 2975 2913 2975 3322 
Q 2975 3731 2742 3939 
Q 2509 4147 2053 4147 
L 1259 4147 
z
" transform="scale(0.015625)"/>
     </defs>
     <use xlink:href="#DejaVuSans-52"/>
     <use xlink:href="#DejaVuSans-65" transform="translate(64.982422 0)"/>
     <use xlink:href="#DejaVuSans-6e" transform="translate(126.505859 0)"/>
     <use xlink:href="#DejaVuSans-61" transform="translate(189.884766 0)"/>
     <use xlink:href="#DejaVuSans-74" transform="translate(251.164062 0)"/>
     <use xlink:href="#DejaVuSans-61" transform="translate(290.373047 0)"/>
     <use xlink:href="#DejaVuSans-20" transform="translate(351.652344 0)"/>
     <use xlink:href="#DejaVuSans-46" transform="translate(383.439453 0)"/>
     <use xlink:href="#DejaVuSans-61" transform="translate(431.833984 0)"/>
     <use xlink:href="#DejaVuSans-73" transform="translate(493.113281 0)"/>
     <use xlink:href="#DejaVuSans-74" transform="translate(545.212891 0)"/>
    </g>
   </g>
   <g id="text_32">
    <!-- Laura Stacey -->
    <g transform="translate(791.266242 298.192867) scale(0.09 -0.09)">
     <defs>
      <path id="DejaVuSans-4c" d="M 628 4666 
L 1259 4666 
L 1259 531 
L 3531 531 
L 3531 0 
L 628 0 
L 628 4666 
z
" transform="scale(0.015625)"/>
     </defs>
     <use xlink:href="#DejaVuSans-4c"/>
     <use xlink:href="#DejaVuSans-61" transform="translate(55.712891 0)"/>
     <use xlink:href="#DejaVuSans-75" transform="translate(116.992188 0)"/>
     <use xlink:href="#DejaVuSans-72" transform="translate(180.371094 0)"/>
     <use xlink:href="#DejaVuSans-61" transform="translate(221.484375 0)"/>
     <use xlink:href="#DejaVuSans-20" transform="translate(282.763672 0)"/>
     <use xlink:href="#DejaVuSans-53" transform="translate(314.550781 0)"/>
     <use xlink:href="#DejaVuSans-74" transform="translate(378.027344 0)"/>
     <use xlink:href="#DejaVuSans-61" transform="translate(417.236328 0)"/>
     <use xlink:href="#DejaVuSans-63" transform="translate(478.515625 0)"/>
     <use xlink:href="#DejaVuSans-65" transform="translate(533.496094 0)"/>
     <use xlink:href="#DejaVuSans-79" transform="translate(595.019531 0)"/>
    </g>
   </g>
   <g id="text_33">
    <!-- Sarah Nurse -->
    <g transform="translate(175.367417 475.521538) scale(0.09 -0.09)">
     <defs>
      <path id="DejaVuSans-4e" d="M 628 4666 
L 1478 4666 
L 3547 763 
L 3547 4666 
L 4159 4666 
L 4159 0 
L 3309 0 
L 1241 3903 
L 1241 0 
L 628 0 
L 628 4666 
z
" transform="scale(0.015625)"/>
     </defs>
     <use xlink:href="#DejaVuSans-53"/>
     <use xlink:href="#DejaVuSans-61" transform="translate(63.476562 0)"/>
     <use xlink:href="#DejaVuSans-72" transform="translate(124.755859 0)"/>
     <use xlink:href="#DejaVuSans-61" transform="translate(165.869141 0)"/>
     <use xlink:href="#DejaVuSans-68" transform="translate(227.148438 0)"/>
     <use xlink:href="#DejaVuSans-20" transform="translate(290.527344 0)"/>
     <use xlink:href="#DejaVuSans-4e" transform="translate(322.314453 0)"/>
     <use xlink:href="#DejaVuSans-75" transform="translate(397.119141 0)"/>
     <use xlink:href="#DejaVuSans-72" transform="translate(460.498047 0)"/>
     <use xlink:href="#DejaVuSans-73" transform="translate(501.611328 0)"/>
     <use xlink:href="#DejaVuSans-65" transform="translate(553.710938 0)"/>
    </g>
   </g>
   <g id="text_34">
    <!-- Abby Roque -->
    <g transform="translate(394.353666 440.055804) scale(0.09 -0.09)">
     <defs>
      <path id="DejaVuSans-62" d="M 3116 1747 
Q 3116 2381 2855 2742 
Q 2594 3103 2138 3103 
Q 1681 3103 1420 2742 
Q 1159 2381 1159 1747 
Q 1159 1113 1420 752 
Q 1681 391 2138 391 
Q 2594 391 2855 752 
Q 3116 1113 3116 1747 
z
M 1159 2969 
Q 1341 3281 1617 3432 
Q 1894 3584 2278 3584 
Q 2916 3584 3314 3078 
Q 3713 2572 3713 1747 
Q 3713 922 3314 415 
Q 2916 -91 2278 -91 
Q 1894 -91 1617 61 
Q 1341 213 1159 525 
L 1159 0 
L 581 0 
L 581 4863 
L 1159 4863 
L 1159 2969 
z
" transform="scale(0.015625)"/>
      <path id="DejaVuSans-71" d="M 947 1747 
Q 947 1113 1208 752 
Q 1469 391 1925 391 
Q 2381 391 2643 752 
Q 2906 1113 2906 1747 
Q 2906 2381 2643 2742 
Q 2381 3103 1925 3103 
Q 1469 3103 1208 2742 
Q 947 2381 947 1747 
z
M 2906 525 
Q 2725 213 2448 61 
Q 2172 -91 1784 -91 
Q 1150 -91 751 415 
Q 353 922 353 1747 
Q 353 2572 751 3078 
Q 1150 3584 1784 3584 
Q 2172 3584 2448 3432 
Q 2725 3281 2906 2969 
L 2906 3500 
L 3481 3500 
L 3481 -1331 
L 2906 -1331 
L 2906 525 
z
" transform="scale(0.015625)"/>
     </defs>
     <use xlink:href="#DejaVuSans-41"/>
     <use xlink:href="#DejaVuSans-62" transform="translate(68.408203 0)"/>
     <use xlink:href="#DejaVuSans-62" transform="translate(131.884766 0)"/>
     <use xlink:href="#DejaVuSans-79" transform="translate(195.361328 0)"/>
     <use xlink:href="#DejaVuSans-20" transform="translate(254.541016 0)"/>
     <use xlink:href="#DejaVuSans-52" transform="translate(286.328125 0)"/>
     <use xlink:href="#DejaVuSans-6f" transform="translate(351.310547 0)"/>
     <use xlink:href="#DejaVuSans-71" transform="translate(412.492188 0)"/>
     <use xlink:href="#DejaVuSans-75" transform="translate(475.96875 0)"/>
     <use xlink:href="#DejaVuSans-65" transform="translate(539.347656 0)"/>
    </g>
   </g>
   <g id="text_35">
    <!-- Jennifer Gardiner -->
    <g transform="translate(93.247574 510.987273) scale(0.09 -0.09)">
     <use xlink:href="#DejaVuSans-4a"/>
     <use xlink:href="#DejaVuSans-65" transform="translate(29.492188 0)"/>
     <use xlink:href="#DejaVuSans-6e" transform="translate(91.015625 0)"/>
     <use xlink:href="#DejaVuSans-6e" transform="translate(154.394531 0)"/>
     <use xlink:href="#DejaVuSans-69" transform="translate(217.773438 0)"/>
     <use xlink:href="#DejaVuSans-66" transform="translate(245.556641 0)"/>
     <use xlink:href="#DejaVuSans-65" transform="translate(280.761719 0)"/>
     <use xlink:href="#DejaVuSans-72" transform="translate(342.285156 0)"/>
     <use xlink:href="#DejaVuSans-20" transform="translate(383.398438 0)"/>
     <use xlink:href="#DejaVuSans-47" transform="translate(415.185547 0)"/>
     <use xlink:href="#DejaVuSans-61" transform="translate(492.675781 0)"/>
     <use xlink:href="#DejaVuSans-72" transform="translate(553.955078 0)"/>
     <use xlink:href="#DejaVuSans-64" transform="translate(593.318359 0)"/>
     <use xlink:href="#DejaVuSans-69" transform="translate(656.794922 0)"/>
     <use xlink:href="#DejaVuSans-6e" transform="translate(684.578125 0)"/>
     <use xlink:href="#DejaVuSans-65" transform="translate(747.957031 0)"/>
     <use xlink:href="#DejaVuSans-72" transform="translate(809.480469 0)"/>
    </g>
   </g>
   <g id="text_36">
    <!-- PWHL Player Shooting Efficiency (2024-25 Regular Season) -->
    <g transform="translate(250.932767 20.88) scale(0.12 -0.12)">
     <defs>
      <path id="DejaVuSans-28" d="M 1984 4856 
Q 1566 4138 1362 3434 
Q 1159 2731 1159 2009 
Q 1159 1288 1364 580 
Q 1569 -128 1984 -844 
L 1484 -844 
Q 1016 -109 783 600 
Q 550 1309 550 2009 
Q 550 2706 781 3412 
Q 1013 4119 1484 4856 
L 1984 4856 
z
" transform="scale(0.015625)"/>
      <path id="DejaVuSans-29" d="M 513 4856 
L 1013 4856 
Q 1481 4119 1714 3412 
Q 1947 2706 1947 2009 
Q 1947 1309 1714 600 
Q 1481 -109 1013 -844 
L 513 -844 
Q 928 -128 1133 580 
Q 1338 1288 1338 2009 
Q 1338 2731 1133 3434 
Q 928 4138 513 4856 
z
" transform="scale(0.015625)"/>
     </defs>
     <use xlink:href="#DejaVuSans-50"/>
     <use xlink:href="#DejaVuSans-57" transform="translate(60.302734 0)"/>
     <use xlink:href="#DejaVuSans-48" transform="translate(159.179688 0)"/>
     <use xlink:href="#DejaVuSans-4c" transform="translate(234.375 0)"/>
     <use xlink:href="#DejaVuSans-20" transform="translate(290.087891 0)"/>
     <use xlink:href="#DejaVuSans-50" transform="translate(321.875 0)"/>
     <use xlink:href="#DejaVuSans-6c" transform="translate(382.177734 0)"/>
     <use xlink:href="#DejaVuSans-61" transform="translate(409.960938 0)"/>
     <use xlink:href="#DejaVuSans-79" transform="translate(471.240234 0)"/>
     <use xlink:href="#DejaVuSans-65" transform="translate(530.419922 0)"/>
     <use xlink:href="#DejaVuSans-72" transform="translate(591.943359 0)"/>
     <use xlink:href="#DejaVuSans-20" transform="translate(633.056641 0)"/>
     <use xlink:href="#DejaVuSans-53" transform="translate(664.84375 0)"/>
     <use xlink:href="#DejaVuSans-68" transform="translate(728.320312 0)"/>
     <use xlink:href="#DejaVuSans-6f" transform="translate(791.699219 0)"/>
     <use xlink:href="#DejaVuSans-6f" transform="translate(852.880859 0)"/>
     <use xlink:href="#DejaVuSans-74" transform="translate(914.0625 0)"/>
     <use xlink:href="#DejaVuSans-69" transform="translate(953.271484 0)"/>
     <use xlink:href="#DejaVuSans-6e" transform="translate(981.054688 0)"/>
     <use xlink:href="#DejaVuSans-67" transform="translate(1044.433594 0)"/>
     <use xlink:href="#DejaVuSans-20" transform="translate(1107.910156 0)"/>
     <use xlink:href="#DejaVuSans-45" transform="translate(1139.697266 0)"/>
     <use xlink:href="#DejaVuSans-66" transform="translate(1202.880859 0)"/>
     <use xlink:href="#DejaVuSans-66" transform="translate(1238.085938 0)"/>
     <use xlink:href="#DejaVuSans-69" transform="translate(1273.291016 0)"/>
     <use xlink:href="#DejaVuSans-63" transform="translate(1301.074219 0)"/>
     <use xlink:href="#DejaVuSans-69" transform="translate(1356.054688 0)"/>
     <use xlink:href="#DejaVuSans-65" transform="translate(1383.837891 0)"/>
     <use xlink:href="#DejaVuSans-6e" transform="translate(1445.361328 0)"/>
     <use xlink:href="#DejaVuSans-63" transform="translate(1508.740234 0)"/>
     <use xlink:href="#DejaVuSans-79" transform="translate(1563.720703 0)"/>
     <use xlink:href="#DejaVuSans-20" transform="translate(1622.900391 0)"/>
     <use xlink:href="#DejaVuSans-28" transform="translate(1654.6875 0)"/>
     <use xlink:href="#DejaVuSans-32" transform="translate(1693.701172 0)"/>
     <use xlink:href="#DejaVuSans-30" transform="translate(1757.324219 0)"/>
     <use xlink:href="#DejaVuSans-32" transform="translate(1820.947266 0)"/>
     <use xlink:href="#DejaVuSans-34" transform="translate(1884.570312 0)"/>
     <use xlink:href="#DejaVuSans-2d" transform="translate(1948.193359 0)"/>
     <use xlink:href="#DejaVuSans-32" transform="translate(1984.277344 0)"/>
     <use xlink:href="#DejaVuSans-35" transform="translate(2047.900391 0)"/>
     <use xlink:href="#DejaVuSans-20" transform="translate(2111.523438 0)"/>
     <use xlink:href="#DejaVuSans-52" transform="translate(2143.310547 0)"/>
     <use xlink:href="#DejaVuSans-65" transform="translate(2208.292969 0)"/>
     <use xlink:href="#DejaVuSans-67" transform="translate(2269.816406 0)"/>
     <use xlink:href="#DejaVuSans-75" transform="translate(2333.292969 0)"/>
     <use xlink:href="#DejaVuSans-6c" transform="translate(2396.671875 0)"/>
     <use xlink:href="#DejaVuSans-61" transform="translate(2424.455078 0)"/>
     <use xlink:href="#DejaVuSans-72" transform="translate(2485.734375 0)"/>
     <use xlink:href="#DejaVuSans-20" transform="translate(2526.847656 0)"/>
     <use xlink:href="#DejaVuSans-53" transform="translate(2558.634766 0)"/>
     <use xlink:href="#DejaVuSans-65" transform="translate(2622.111328 0)"/>
     <use xlink:href="#DejaVuSans-61" transform="translate(2683.634766 0)"/>
     <use xlink:href="#DejaVuSans-73" transform="translate(2744.914062 0)"/>
     <use xlink:href="#DejaVuSans-6f" transform="translate(2797.013672 0)"/>
     <use xlink:href="#DejaVuSans-6e" transform="translate(2858.195312 0)"/>
     <use xlink:href="#DejaVuSans-29" transform="translate(2921.574219 0)"/>
    </g>
   </g>
   <g id="legend_1">
    <g id="patch_7">
     <path d="M 51.66 137.626875 
L 168.536563 137.626875 
Q 170.536563 137.626875 170.536563 135.626875 
L 170.536563 33.88 
Q 170.536563 31.88 168.536563 31.88 
L 51.66 31.88 
Q 49.66 31.88 49.66 33.88 
L 49.66 135.626875 
Q 49.66 137.626875 51.66 137.626875 
z
" style="fill: #ffffff; opacity: 0.8; stroke: #cccccc; stroke-linejoin: miter"/>
    </g>
    <g id="text_37">
     <!-- Teams -->
     <g transform="translate(94.27875 43.478438) scale(0.1 -0.1)">
      <use xlink:href="#DejaVuSans-54"/>
      <use xlink:href="#DejaVuSans-65" transform="translate(44.083984 0)"/>
      <use xlink:href="#DejaVuSans-61" transform="translate(105.607422 0)"/>
      <use xlink:href="#DejaVuSans-6d" transform="translate(166.886719 0)"/>
      <use xlink:href="#DejaVuSans-73" transform="translate(264.298828 0)"/>
     </g>
    </g>
    <g id="line2d_27">
     <path d="M 53.66 54.656563 
L 63.66 54.656563 
L 73.66 54.656563 
" style="fill: none; stroke: #ffffff; stroke-width: 1.5; stroke-linecap: square"/>
     <defs>
      <path id="ma2d3acf0cc" d="M 0 5 
C 1.326016 5 2.597899 4.473168 3.535534 3.535534 
C 4.473168 2.597899 5 1.326016 5 0 
C 5 -1.326016 4.473168 -2.597899 3.535534 -3.535534 
C 2.597899 -4.473168 1.326016 -5 0 -5 
C -1.326016 -5 -2.597899 -4.473168 -3.535534 -3.535534 
C -4.473168 -2.597899 -5 -1.326016 -5 0 
C -5 1.326016 -4.473168 2.597899 -3.535534 3.535534 
C -2.597899 4.473168 -1.326016 5 0 5 
z
" style="stroke: #ffffff"/>
     </defs>
     <g>
      <use xlink:href="#ma2d3acf0cc" x="63.66" y="54.656563" style="fill: #173f35; stroke: #ffffff"/>
     </g>
    </g>
    <g id="text_38">
     <!-- Boston Fleet -->
     <g transform="translate(81.66 58.156563) scale(0.1 -0.1)">
      <use xlink:href="#DejaVuSans-42"/>
      <use xlink:href="#DejaVuSans-6f" transform="translate(68.603516 0)"/>
      <use xlink:href="#DejaVuSans-73" transform="translate(129.785156 0)"/>
      <use xlink:href="#DejaVuSans-74" transform="translate(181.884766 0)"/>
      <use xlink:href="#DejaVuSans-6f" transform="translate(221.09375 0)"/>
      <use xlink:href="#DejaVuSans-6e" transform="translate(282.275391 0)"/>
      <use xlink:href="#DejaVuSans-20" transform="translate(345.654297 0)"/>
      <use xlink:href="#DejaVuSans-46" transform="translate(377.441406 0)"/>
      <use xlink:href="#DejaVuSans-6c" transform="translate(434.960938 0)"/>
      <use xlink:href="#DejaVuSans-65" transform="translate(462.744141 0)"/>
      <use xlink:href="#DejaVuSans-65" transform="translate(524.267578 0)"/>
      <use xlink:href="#DejaVuSans-74" transform="translate(585.791016 0)"/>
     </g>
    </g>
    <g id="line2d_28">
     <path d="M 53.66 69.334688 
L 63.66 69.334688 
L 73.66 69.334688 
" style="fill: none; stroke: #ffffff; stroke-width: 1.5; stroke-linecap: square"/>
     <defs>
      <path id="m35385a19ca" d="M 0 5 
C 1.326016 5 2.597899 4.473168 3.535534 3.535534 
C 4.473168 2.597899 5 1.326016 5 0 
C 5 -1.326016 4.473168 -2.597899 3.535534 -3.535534 
C 2.597899 -4.473168 1.326016 -5 0 -5 
C -1.326016 -5 -2.597899 -4.473168 -3.535534 -3.535534 
C -4.473168 -2.597899 -5 -1.326016 -5 0 
C -5 1.326016 -4.473168 2.597899 -3.535534 3.535534 
C -2.597899 4.473168 -1.326016 5 0 5 
z
" style="stroke: #ffffff"/>
     </defs>
     <g>
      <use xlink:href="#m35385a19ca" x="63.66" y="69.334688" style="fill: #862633; stroke: #ffffff"/>
     </g>
    </g>
    <g id="text_39">
     <!-- Montréal Victoire -->
     <g transform="translate(81.66 72.834688) scale(0.1 -0.1)">
      <defs>
       <path id="DejaVuSans-e9" d="M 3597 1894 
L 3597 1613 
L 953 1613 
Q 991 1019 1311 708 
Q 1631 397 2203 397 
Q 2534 397 2845 478 
Q 3156 559 3463 722 
L 3463 178 
Q 3153 47 2828 -22 
Q 2503 -91 2169 -91 
Q 1331 -91 842 396 
Q 353 884 353 1716 
Q 353 2575 817 3079 
Q 1281 3584 2069 3584 
Q 2775 3584 3186 3129 
Q 3597 2675 3597 1894 
z
M 3022 2063 
Q 3016 2534 2758 2815 
Q 2500 3097 2075 3097 
Q 1594 3097 1305 2825 
Q 1016 2553 972 2059 
L 3022 2063 
z
M 2466 5119 
L 3088 5119 
L 2070 3944 
L 1591 3944 
L 2466 5119 
z
" transform="scale(0.015625)"/>
      </defs>
      <use xlink:href="#DejaVuSans-4d"/>
      <use xlink:href="#DejaVuSans-6f" transform="translate(86.279297 0)"/>
      <use xlink:href="#DejaVuSans-6e" transform="translate(147.460938 0)"/>
      <use xlink:href="#DejaVuSans-74" transform="translate(210.839844 0)"/>
      <use xlink:href="#DejaVuSans-72" transform="translate(250.048828 0)"/>
      <use xlink:href="#DejaVuSans-e9" transform="translate(288.912109 0)"/>
      <use xlink:href="#DejaVuSans-61" transform="translate(350.435547 0)"/>
      <use xlink:href="#DejaVuSans-6c" transform="translate(411.714844 0)"/>
      <use xlink:href="#DejaVuSans-20" transform="translate(439.498047 0)"/>
      <use xlink:href="#DejaVuSans-56" transform="translate(471.285156 0)"/>
      <use xlink:href="#DejaVuSans-69" transform="translate(537.443359 0)"/>
      <use xlink:href="#DejaVuSans-63" transform="translate(565.226562 0)"/>
      <use xlink:href="#DejaVuSans-74" transform="translate(620.207031 0)"/>
      <use xlink:href="#DejaVuSans-6f" transform="translate(659.416016 0)"/>
      <use xlink:href="#DejaVuSans-69" transform="translate(720.597656 0)"/>
      <use xlink:href="#DejaVuSans-72" transform="translate(748.380859 0)"/>
      <use xlink:href="#DejaVuSans-65" transform="translate(787.244141 0)"/>
     </g>
    </g>
    <g id="line2d_29">
     <path d="M 53.66 84.012813 
L 63.66 84.012813 
L 73.66 84.012813 
" style="fill: none; stroke: #ffffff; stroke-width: 1.5; stroke-linecap: square"/>
     <defs>
      <path id="m04586ca88d" d="M 0 5 
C 1.326016 5 2.597899 4.473168 3.535534 3.535534 
C 4.473168 2.597899 5 1.326016 5 0 
C 5 -1.326016 4.473168 -2.597899 3.535534 -3.535534 
C 2.597899 -4.473168 1.326016 -5 0 -5 
C -1.326016 -5 -2.597899 -4.473168 -3.535534 -3.535534 
C -4.473168 -2.597899 -5 -1.326016 -5 0 
C -5 1.326016 -4.473168 2.597899 -3.535534 3.535534 
C -2.597899 4.473168 -1.326016 5 0 5 
z
" style="stroke: #ffffff"/>
     </defs>
     <g>
      <use xlink:href="#m04586ca88d" x="63.66" y="84.012813" style="fill: #00bfb3; stroke: #ffffff"/>
     </g>
    </g>
    <g id="text_40">
     <!-- New York Sirens -->
     <g transform="translate(81.66 87.512813) scale(0.1 -0.1)">
      <defs>
       <path id="DejaVuSans-77" d="M 269 3500 
L 844 3500 
L 1563 769 
L 2278 3500 
L 2956 3500 
L 3675 769 
L 4391 3500 
L 4966 3500 
L 4050 0 
L 3372 0 
L 2619 2869 
L 1863 0 
L 1184 0 
L 269 3500 
z
" transform="scale(0.015625)"/>
       <path id="DejaVuSans-59" d="M -13 4666 
L 666 4666 
L 1959 2747 
L 3244 4666 
L 3922 4666 
L 2272 2222 
L 2272 0 
L 1638 0 
L 1638 2222 
L -13 4666 
z
" transform="scale(0.015625)"/>
      </defs>
      <use xlink:href="#DejaVuSans-4e"/>
      <use xlink:href="#DejaVuSans-65" transform="translate(74.804688 0)"/>
      <use xlink:href="#DejaVuSans-77" transform="translate(136.328125 0)"/>
      <use xlink:href="#DejaVuSans-20" transform="translate(218.115234 0)"/>
      <use xlink:href="#DejaVuSans-59" transform="translate(249.902344 0)"/>
      <use xlink:href="#DejaVuSans-6f" transform="translate(297.736328 0)"/>
      <use xlink:href="#DejaVuSans-72" transform="translate(358.917969 0)"/>
      <use xlink:href="#DejaVuSans-6b" transform="translate(400.03125 0)"/>
      <use xlink:href="#DejaVuSans-20" transform="translate(457.941406 0)"/>
      <use xlink:href="#DejaVuSans-53" transform="translate(489.728516 0)"/>
      <use xlink:href="#DejaVuSans-69" transform="translate(553.205078 0)"/>
      <use xlink:href="#DejaVuSans-72" transform="translate(580.988281 0)"/>
      <use xlink:href="#DejaVuSans-65" transform="translate(619.851562 0)"/>
      <use xlink:href="#DejaVuSans-6e" transform="translate(681.375 0)"/>
      <use xlink:href="#DejaVuSans-73" transform="translate(744.753906 0)"/>
     </g>
    </g>
    <g id="line2d_30">
     <path d="M 53.66 98.690938 
L 63.66 98.690938 
L 73.66 98.690938 
" style="fill: none; stroke: #ffffff; stroke-width: 1.5; stroke-linecap: square"/>
     <defs>
      <path id="m48e307d2d3" d="M 0 5 
C 1.326016 5 2.597899 4.473168 3.535534 3.535534 
C 4.473168 2.597899 5 1.326016 5 0 
C 5 -1.326016 4.473168 -2.597899 3.535534 -3.535534 
C 2.597899 -4.473168 1.326016 -5 0 -5 
C -1.326016 -5 -2.597899 -4.473168 -3.535534 -3.535534 
C -4.473168 -2.597899 -5 -1.326016 -5 0 
C -5 1.326016 -4.473168 2.597899 -3.535534 3.535534 
C -2.597899 4.473168 -1.326016 5 0 5 
z
" style="stroke: #ffffff"/>
     </defs>
     <g>
      <use xlink:href="#m48e307d2d3" x="63.66" y="98.690938" style="fill: #ffb81c; stroke: #ffffff"/>
     </g>
    </g>
    <g id="text_41">
     <!-- Ottawa Charge -->
     <g transform="translate(81.66 102.190938) scale(0.1 -0.1)">
      <defs>
       <path id="DejaVuSans-4f" d="M 2522 4238 
Q 1834 4238 1429 3725 
Q 1025 3213 1025 2328 
Q 1025 1447 1429 934 
Q 1834 422 2522 422 
Q 3209 422 3611 934 
Q 4013 1447 4013 2328 
Q 4013 3213 3611 3725 
Q 3209 4238 2522 4238 
z
M 2522 4750 
Q 3503 4750 4090 4092 
Q 4678 3434 4678 2328 
Q 4678 1225 4090 567 
Q 3503 -91 2522 -91 
Q 1538 -91 948 565 
Q 359 1222 359 2328 
Q 359 3434 948 4092 
Q 1538 4750 2522 4750 
z
" transform="scale(0.015625)"/>
      </defs>
      <use xlink:href="#DejaVuSans-4f"/>
      <use xlink:href="#DejaVuSans-74" transform="translate(78.710938 0)"/>
      <use xlink:href="#DejaVuSans-74" transform="translate(117.919922 0)"/>
      <use xlink:href="#DejaVuSans-61" transform="translate(157.128906 0)"/>
      <use xlink:href="#DejaVuSans-77" transform="translate(218.408203 0)"/>
      <use xlink:href="#DejaVuSans-61" transform="translate(300.195312 0)"/>
      <use xlink:href="#DejaVuSans-20" transform="translate(361.474609 0)"/>
      <use xlink:href="#DejaVuSans-43" transform="translate(393.261719 0)"/>
      <use xlink:href="#DejaVuSans-68" transform="translate(463.085938 0)"/>
      <use xlink:href="#DejaVuSans-61" transform="translate(526.464844 0)"/>
      <use xlink:href="#DejaVuSans-72" transform="translate(587.744141 0)"/>
      <use xlink:href="#DejaVuSans-67" transform="translate(627.107422 0)"/>
      <use xlink:href="#DejaVuSans-65" transform="translate(690.583984 0)"/>
     </g>
    </g>
    <g id="line2d_31">
     <path d="M 53.66 113.369063 
L 63.66 113.369063 
L 73.66 113.369063 
" style="fill: none; stroke: #ffffff; stroke-width: 1.5; stroke-linecap: square"/>
     <defs>
      <path id="mb0337f5a55" d="M 0 5 
C 1.326016 5 2.597899 4.473168 3.535534 3.535534 
C 4.473168 2.597899 5 1.326016 5 0 
C 5 -1.326016 4.473168 -2.597899 3.535534 -3.535534 
C 2.597899 -4.473168 1.326016 -5 0 -5 
C -1.326016 -5 -2.597899 -4.473168 -3.535534 -3.535534 
C -4.473168 -2.597899 -5 -1.326016 -5 0 
C -5 1.326016 -4.473168 2.597899 -3.535534 3.535534 
C -2.597899 4.473168 -1.326016 5 0 5 
z
" style="stroke: #ffffff"/>
     </defs>
     <g>
      <use xlink:href="#mb0337f5a55" x="63.66" y="113.369063" style="fill: #0067b9; stroke: #ffffff"/>
     </g>
    </g>
    <g id="text_42">
     <!-- Toronto Sceptres -->
     <g transform="translate(81.66 116.869063) scale(0.1 -0.1)">
      <use xlink:href="#DejaVuSans-54"/>
      <use xlink:href="#DejaVuSans-6f" transform="translate(44.083984 0)"/>
      <use xlink:href="#DejaVuSans-72" transform="translate(105.265625 0)"/>
      <use xlink:href="#DejaVuSans-6f" transform="translate(144.128906 0)"/>
      <use xlink:href="#DejaVuSans-6e" transform="translate(205.310547 0)"/>
      <use xlink:href="#DejaVuSans-74" transform="translate(268.689453 0)"/>
      <use xlink:href="#DejaVuSans-6f" transform="translate(307.898438 0)"/>
      <use xlink:href="#DejaVuSans-20" transform="translate(369.080078 0)"/>
      <use xlink:href="#DejaVuSans-53" transform="translate(400.867188 0)"/>
      <use xlink:href="#DejaVuSans-63" transform="translate(464.34375 0)"/>
      <use xlink:href="#DejaVuSans-65" transform="translate(519.324219 0)"/>
      <use xlink:href="#DejaVuSans-70" transform="translate(580.847656 0)"/>
      <use xlink:href="#DejaVuSans-74" transform="translate(644.324219 0)"/>
      <use xlink:href="#DejaVuSans-72" transform="translate(683.533203 0)"/>
      <use xlink:href="#DejaVuSans-65" transform="translate(722.396484 0)"/>
      <use xlink:href="#DejaVuSans-73" transform="translate(783.919922 0)"/>
     </g>
    </g>
    <g id="line2d_32">
     <path d="M 53.66 128.047188 
L 63.66 128.047188 
L 73.66 128.047188 
" style="fill: none; stroke: #ffffff; stroke-width: 1.5; stroke-linecap: square"/>
     <defs>
      <path id="mce6edaa29d" d="M 0 5 
C 1.326016 5 2.597899 4.473168 3.535534 3.535534 
C 4.473168 2.597899 5 1.326016 5 0 
C 5 -1.326016 4.473168 -2.597899 3.535534 -3.535534 
C 2.597899 -4.473168 1.326016 -5 0 -5 
C -1.326016 -5 -2.597899 -4.473168 -3.535534 -3.535534 
C -4.473168 -2.597899 -5 -1.326016 -5 0 
C -5 1.326016 -4.473168 2.597899 -3.535534 3.535534 
C -2.597899 4.473168 -1.326016 5 0 5 
z
" style="stroke: #ffffff"/>
     </defs>
     <g>
      <use xlink:href="#mce6edaa29d" x="63.66" y="128.047188" style="fill: #a77bca; stroke: #ffffff"/>
     </g>
    </g>
    <g id="text_43">
     <!-- Minnesota Frost -->
     <g transform="translate(81.66 131.547188) scale(0.1 -0.1)">
      <use xlink:href="#DejaVuSans-4d"/>
      <use xlink:href="#DejaVuSans-69" transform="translate(86.279297 0)"/>
      <use xlink:href="#DejaVuSans-6e" transform="translate(114.0625 0)"/>
      <use xlink:href="#DejaVuSans-6e" transform="translate(177.441406 0)"/>
      <use xlink:href="#DejaVuSans-65" transform="translate(240.820312 0)"/>
      <use xlink:href="#DejaVuSans-73" transform="translate(302.34375 0)"/>
      <use xlink:href="#DejaVuSans-6f" transform="translate(354.443359 0)"/>
      <use xlink:href="#DejaVuSans-74" transform="translate(415.625 0)"/>
      <use xlink:href="#DejaVuSans-61" transform="translate(454.833984 0)"/>
      <use xlink:href="#DejaVuSans-20" transform="translate(516.113281 0)"/>
      <use xlink:href="#DejaVuSans-46" transform="translate(547.900391 0)"/>
      <use xlink:href="#DejaVuSans-72" transform="translate(598.169922 0)"/>
      <use xlink:href="#DejaVuSans-6f" transform="translate(637.033203 0)"/>
      <use xlink:href="#DejaVuSans-73" transform="translate(698.214844 0)"/>
      <use xlink:href="#DejaVuSans-74" transform="translate(750.314453 0)"/>
     </g>
    </g>
   </g>
  </g>
 </g>
 <defs>
  <clipPath id="p1a88acda46">
   <rect x="44.66" y="26.88" width="767.820535" height="507.16"/>
  </clipPath>
 </defs>
</svg>
